<?xml version="1.0" standalone="no"?>
<!DOCTYPE svg PUBLIC "-//W3C//DTD SVG 20010904//EN"
 "http://www.w3.org/TR/2001/REC-SVG-20010904/DTD/svg10.dtd">
<svg version="1.0" xmlns="http://www.w3.org/2000/svg"
 width="1024.000000pt" height="1024.000000pt" viewBox="0 0 1024.000000 1024.000000"
 preserveAspectRatio="xMidYMid meet">

<g transform="translate(0.000000,1024.000000) scale(0.100000,-0.100000)"
fill="#000000" stroke="none">
<path d="M4833 8300 c-421 -41 -864 -174 -1218 -366 -740 -403 -1273 -1060
-1530 -1889 -81 -261 -122 -518 -132 -815 -24 -766 220 -1493 701 -2090 134
-167 379 -401 557 -531 201 -148 481 -307 687 -388 444 -175 914 -254 1377
-230 671 35 1292 263 1815 670 111 86 343 310 440 424 413 489 653 1058 731
1735 18 151 15 497 -5 665 -43 367 -136 688 -291 1012 -477 994 -1356 1638
-2440 1789 -139 19 -550 27 -692 14z m707 -516 c78 -47 79 -158 1 -213 -28
-20 -40 -21 -423 -21 -372 0 -395 1 -425 20 -74 45 -83 139 -19 197 l36 33
401 0 c353 0 404 -2 429 -16z m-50 -859 l0 -435 -375 0 -375 0 0 435 0 435
375 0 374 0 1 -435z m848 259 c44 -30 16 -104 -40 -104 -22 0 -58 38 -58 62 0
23 35 58 58 58 10 0 28 -7 40 -16z m565 -405 c48 -13 112 -69 140 -123 15 -30
21 -59 22 -107 0 -56 -4 -73 -30 -115 -19 -30 -49 -60 -80 -79 -43 -27 -57
-30 -126 -30 -70 0 -81 3 -120 30 -62 43 -99 109 -106 184 -15 161 140 285
300 240z m-3004 -14 c32 -16 41 -33 41 -75 0 -44 -31 -74 -75 -74 -90 0 -113
121 -30 154 28 12 33 12 64 -5z m-646 -371 c82 -28 147 -123 147 -215 0 -40
-32 -114 -63 -147 -39 -43 -97 -66 -163 -67 -79 0 -145 38 -189 109 -25 41
-30 60 -30 110 1 98 45 164 135 205 54 25 101 26 163 5z m2078 -30 c119 -20
307 -82 424 -139 171 -84 284 -191 359 -340 75 -149 70 -53 74 -1382 l2 -1193
-1079 0 -1080 0 -6 43 c-3 23 -5 551 -2 1172 4 1264 0 1196 76 1350 73 148
187 258 355 342 144 72 283 119 441 148 100 19 323 18 436 -1z m2087 -536 c27
-57 -31 -108 -84 -73 -28 18 -32 65 -8 90 25 25 76 16 92 -17z m-459 -407 c46
-24 66 -65 58 -122 -19 -142 -218 -137 -234 5 -6 53 11 86 60 116 40 25 68 25
116 1z m-3668 -31 c10 -6 26 -24 35 -41 39 -77 -40 -158 -122 -124 -89 37 -64
175 31 175 20 0 45 -5 56 -10z m-328 -701 c62 -23 195 -74 297 -114 215 -84
350 -129 443 -146 37 -7 67 -17 67 -23 0 -6 1 -109 2 -229 l3 -218 -25 6 c-14
3 -58 11 -98 17 -143 22 -290 -21 -408 -121 l-57 -47 -66 24 c-47 17 -96 26
-167 29 -120 7 -209 -10 -328 -62 -44 -19 -81 -33 -83 -32 -8 9 -106 225 -138
307 -41 106 -119 370 -130 440 l-7 46 149 71 c185 88 201 94 271 102 80 9 146
-3 275 -50z m4668 -199 c104 -35 279 -128 279 -148 -1 -53 -179 -509 -215
-550 -2 -2 -48 20 -104 47 -55 28 -140 63 -188 78 -77 23 -105 27 -223 27
-137 0 -181 -8 -327 -55 l-63 -21 -42 35 c-72 58 -208 117 -270 117 -16 0 -31
6 -34 15 -4 8 -2 56 2 107 l9 92 80 12 c117 17 224 47 470 130 424 143 498
157 626 114z m-1092 -732 c24 -10 74 -48 112 -84 79 -77 67 -76 253 -17 258
81 349 75 592 -37 l86 -40 -49 -67 c-26 -38 -70 -98 -98 -135 l-50 -67 -472
-1 -473 0 0 240 0 240 28 -6 c15 -4 47 -15 71 -26z m-2831 -29 l62 -21 0 -199
0 -199 -458 0 -457 0 -70 93 c-102 137 -117 158 -114 161 17 15 97 48 150 61
84 22 151 14 293 -35 101 -35 140 -44 172 -41 6 1 17 15 24 32 20 46 94 117
153 144 67 32 158 33 245 4z m3422 -688 c0 -5 -30 -35 -67 -66 -145 -120 -221
-134 -462 -86 -261 52 -391 42 -611 -49 -63 -27 -165 -69 -226 -94 -190 -79
-252 -82 -446 -20 -97 32 -127 37 -213 38 -87 1 -112 -3 -197 -31 -142 -47
-203 -56 -285 -43 -66 11 -109 27 -393 144 -235 97 -363 108 -599 55 -223 -50
-310 -34 -453 87 -38 31 -68 61 -68 65 0 5 905 9 2010 9 1224 0 2010 -4 2010
-9z m-3094 -389 c33 -12 121 -48 195 -80 249 -110 399 -145 537 -123 42 6 126
28 187 47 130 42 170 42 307 -5 239 -81 365 -67 707 80 216 93 272 109 379
109 82 0 219 -23 236 -40 13 -13 -312 -169 -464 -224 -331 -118 -624 -167
-1008 -166 -392 0 -725 60 -1062 191 -140 54 -392 178 -397 195 -2 7 20 16 54
22 32 7 67 14 78 16 45 11 192 -2 251 -22z"/>
<path d="M4975 5559 c-322 -46 -619 -273 -735 -562 -47 -119 -61 -184 -67
-313 -9 -201 33 -356 138 -514 134 -200 359 -346 564 -365 66 -6 62 -3 -51 39
-169 63 -339 217 -419 379 -62 127 -85 223 -85 362 0 91 5 130 26 201 63 219
198 381 399 479 123 61 189 77 335 82 103 4 140 2 211 -15 238 -57 426 -205
530 -417 58 -119 79 -211 79 -344 0 -155 -47 -304 -138 -437 -81 -121 -257
-257 -384 -300 -26 -8 -50 -20 -54 -25 -9 -15 71 0 163 31 262 87 472 321 544
609 18 73 21 104 16 225 -5 150 -20 216 -77 344 -71 156 -235 336 -385 421
-184 105 -407 149 -610 120z"/>
<path d="M5494 4800 c-16 -9 -58 -43 -94 -75 -78 -69 -139 -99 -181 -90 -16 4
-52 25 -80 48 -98 80 -152 117 -171 117 -28 0 -64 -26 -163 -119 -153 -143
-183 -151 -284 -75 -33 25 -63 50 -66 55 -4 5 -13 9 -21 9 -12 0 -14 -17 -12
-97 l3 -97 69 -53 c54 -42 76 -53 105 -53 48 0 77 19 200 133 111 103 156 131
195 121 13 -3 53 -29 88 -57 137 -111 147 -117 191 -117 38 0 46 6 135 95 52
52 105 98 119 101 33 9 67 -9 178 -89 l90 -65 8 50 c15 86 5 109 -57 136 -30
13 -82 46 -116 73 -80 65 -100 72 -136 49z"/>
<path d="M4923 4473 c-26 -20 -74 -58 -106 -85 -118 -98 -196 -118 -297 -78
l-51 20 6 -22 c7 -23 54 -106 80 -142 11 -14 22 -17 47 -13 58 9 144 46 235
101 138 83 149 82 273 -13 129 -99 145 -102 225 -36 69 55 99 64 139 40 17
-10 62 -34 100 -54 l68 -36 30 35 c34 41 98 165 98 191 0 11 -10 20 -30 24
-25 6 -40 0 -83 -29 -29 -20 -64 -36 -78 -36 -14 0 -56 19 -94 41 -64 39 -71
41 -99 29 -92 -38 -140 -51 -170 -45 -28 6 -95 47 -195 120 -19 14 -37 25 -42
25 -4 0 -29 -17 -56 -37z"/>
<path d="M4850 4155 c-52 -25 -119 -53 -147 -62 -29 -9 -53 -19 -53 -22 0 -11
69 -61 132 -95 104 -57 196 -80 323 -80 130 -1 191 12 301 65 78 37 184 111
184 128 0 9 -127 61 -150 61 -8 0 -40 -18 -72 -41 -112 -78 -149 -75 -285 22
-53 38 -106 69 -117 69 -12 0 -64 -20 -116 -45z"/>
</g>
</svg>
