<?xml version="1.0" standalone="no"?>
<!DOCTYPE svg PUBLIC "-//W3C//DTD SVG 20010904//EN"
 "http://www.w3.org/TR/2001/REC-SVG-20010904/DTD/svg10.dtd">
<svg version="1.0" xmlns="http://www.w3.org/2000/svg"
 width="1024.000000pt" height="1024.000000pt" viewBox="0 0 1024.000000 1024.000000"
 preserveAspectRatio="xMidYMid meet">

<g transform="translate(0.000000,1024.000000) scale(0.100000,-0.100000)"
fill="#000000" stroke="none">
<path d="M0 5120 l0 -5120 5120 0 5120 0 0 5120 0 5120 -5120 0 -5120 0 0
-5120z m5157 3167 c-8 -7 -29 -34 -47 -62 -28 -43 -30 -47 -8 -27 36 33 54 28
63 -17 3 -19 90 -111 171 -182 44 -39 68 -68 43 -54 -54 33 -187 147 -217 186
-41 55 -26 60 -137 -40 -140 -127 -274 -195 -630 -321 -263 -93 -275 -97 -275
-78 0 16 4 18 250 104 102 36 190 69 195 73 6 4 37 18 70 31 191 75 380 217
485 364 18 25 37 43 42 40 5 -3 3 -11 -5 -17z m188 -398 c44 -30 132 -80 195
-111 63 -32 113 -58 110 -58 -14 0 -102 31 -155 55 -86 38 -217 128 -297 203
-88 83 -89 102 0 24 37 -33 103 -84 147 -113z m-265 116 c-22 -27 -184 -142
-250 -178 -107 -59 -566 -228 -534 -197 5 4 32 15 59 23 70 21 336 127 419
168 39 19 124 71 190 116 67 45 123 82 125 82 2 1 -2 -6 -9 -14z m410 -65 c30
-18 100 -55 154 -81 55 -27 102 -52 105 -55 3 -3 -35 9 -84 27 -105 36 -206
87 -255 129 l-35 29 30 -8 c17 -5 55 -23 85 -41z m990 -2 c-27 -29 -54 -81
-70 -135 -12 -39 -11 -45 6 -64 19 -21 18 -21 -5 -40 -27 -22 -51 -25 -51 -6
0 33 33 165 47 187 25 39 65 80 80 80 9 0 7 -7 -7 -22z m-2865 -49 c-16 -4
-43 -11 -59 -14 -29 -6 -96 -64 -96 -83 0 -29 40 -55 101 -67 l64 -13 -51 -1
c-52 -1 -100 16 -115 41 -12 18 -11 78 1 78 6 0 10 7 10 15 0 26 73 53 145 53
l30 0 -30 -9z m179 -35 c25 -25 19 -52 -15 -69 -31 -17 -56 -12 -29 5 8 6 11
10 6 10 -5 0 2 9 15 21 23 20 24 21 5 35 -11 8 -15 14 -9 14 7 0 19 -7 27 -16z
m3096 -26 c0 -15 -28 -9 -34 8 -11 30 -6 37 14 19 11 -10 20 -22 20 -27z
m-1806 18 c-12 -32 45 -42 115 -20 21 6 22 5 12 -15 -10 -19 -9 -22 16 -32 15
-6 44 -18 63 -26 34 -15 34 -16 12 -24 -13 -5 -29 -22 -35 -39 -6 -16 -14 -30
-18 -30 -3 0 -5 -13 -3 -30 l4 -30 -68 -1 c-37 0 -87 -4 -112 -7 l-45 -7 1
-47 c0 -72 13 -81 109 -76 44 3 88 8 97 12 15 7 16 1 11 -63 -5 -65 -4 -71 13
-71 16 0 21 11 30 68 6 37 21 87 32 112 21 44 22 44 19 12 -3 -22 0 -31 8 -28
13 5 8 -45 -5 -54 -5 -3 -10 -27 -11 -55 -3 -41 -1 -50 14 -53 14 -3 17 4 17
40 0 24 4 59 9 79 5 21 4 43 -1 53 -7 12 -5 14 7 10 13 -5 15 -2 10 18 -4 16
-1 31 9 41 9 8 16 21 16 27 0 6 6 17 13 24 15 15 67 27 67 15 0 -5 -4 -9 -8
-9 -10 0 -57 -99 -71 -150 -5 -19 -13 -59 -16 -87 l-7 -53 49 0 c63 0 219 -26
313 -51 375 -103 709 -300 984 -582 274 -281 487 -635 579 -962 223 -793 6
-1601 -590 -2187 -218 -216 -443 -363 -730 -477 -190 -75 -414 -134 -550 -145
-68 -5 -69 -7 -43 -112 10 -38 16 -71 14 -73 -1 -2 -6 8 -10 23 -7 28 -24 36
-24 11 0 -9 9 -41 20 -72 19 -55 19 -83 0 -53 -6 9 -10 10 -10 3 0 -6 5 -15
10 -18 6 -3 10 -11 10 -16 0 -6 -7 -4 -15 5 -8 8 -15 21 -15 29 0 8 -7 18 -16
21 -19 7 -12 -21 18 -73 15 -26 16 -31 4 -22 -24 20 -72 126 -91 201 -9 35
-21 116 -25 178 -5 63 -11 116 -14 119 -15 15 -26 -16 -26 -72 0 -150 57 -383
106 -432 27 -27 31 -38 9 -30 -11 5 -12 1 -5 -18 18 -48 1 -24 -26 35 -29 65
-48 88 -59 70 -12 -19 -27 -10 -22 13 6 21 5 21 -8 3 -8 -11 -11 -24 -7 -31 4
-6 -3 1 -15 15 -13 14 -23 22 -23 19 0 -12 61 -134 90 -182 17 -27 26 -45 20
-42 -17 11 -86 117 -124 193 -20 39 -38 72 -41 72 -2 0 -20 -30 -39 -68 -55
-103 -121 -182 -150 -180 -17 2 -24 8 -23 20 1 21 8 23 24 7 8 -8 14 -5 23 12
10 19 10 22 0 12 -9 -9 -16 -9 -25 0 -9 9 -7 19 9 47 19 32 19 34 2 20 -11 -8
-17 -10 -15 -5 3 6 17 36 32 69 40 85 56 164 63 312 5 98 4 133 -5 138 -7 5
-14 6 -16 4 -2 -2 -9 -55 -15 -118 -20 -196 -78 -353 -142 -386 -22 -11 -29
-21 -25 -35 3 -10 2 -19 -3 -19 -4 0 -11 -11 -14 -25 -6 -24 -7 -24 -25 -7
-16 15 -17 20 -4 40 7 12 12 28 11 35 -2 7 14 44 34 82 53 102 86 228 94 354
7 135 7 132 41 121 15 -5 107 -11 203 -13 l175 -3 2 -40 c2 -53 13 -136 20
-147 9 -14 32 27 29 53 -2 14 -1 17 1 6 4 -16 11 -18 56 -12 227 30 488 111
709 222 546 273 962 783 1122 1374 136 504 84 1053 -144 1518 -141 286 -351
550 -603 754 -311 252 -733 439 -1054 464 l-83 7 0 -65 0 -65 78 -6 c228 -18
574 -146 810 -300 321 -209 586 -503 750 -832 77 -156 106 -231 142 -368 36
-136 58 -277 64 -417 5 -105 5 -105 -4 -25 -45 384 -123 636 -284 910 -161
273 -417 536 -695 714 -192 123 -457 229 -692 276 -68 14 -134 27 -146 30 -21
5 -23 2 -23 -30 l0 -35 -265 0 c-221 0 -263 -2 -259 -14 3 -7 -7 -23 -22 -35
-15 -11 -23 -21 -18 -21 4 0 -2 -9 -14 -20 -12 -12 -22 -26 -22 -32 0 -6 11
-1 25 12 14 13 25 21 25 18 0 -19 -60 -122 -102 -176 -27 -35 -48 -65 -46 -67
2 -2 54 46 115 107 65 64 116 107 123 103 17 -10 -7 -44 -93 -133 -35 -35 -38
-42 -20 -39 12 2 46 25 75 51 29 27 63 58 76 69 29 27 28 17 -3 -19 -40 -46
-29 -47 16 -1 22 23 38 36 34 30 -9 -18 5 -16 28 5 19 16 20 16 9 -4 -6 -11
-40 -56 -76 -99 -37 -44 -66 -83 -66 -87 0 -4 43 35 95 87 88 88 115 108 115
87 0 -4 -22 -34 -50 -67 -27 -33 -50 -63 -50 -69 0 -9 113 93 137 124 6 8 15
11 20 7 4 -5 1 -14 -7 -20 -8 -7 -15 -23 -16 -37 0 -14 -4 -36 -8 -49 -7 -20
-5 -23 8 -18 9 4 16 1 16 -6 1 -7 6 -5 14 6 7 9 18 17 25 17 18 0 13 17 -14
46 -13 14 -22 31 -19 35 9 15 24 0 25 -24 0 -12 3 -16 6 -9 4 10 9 9 24 -4 10
-9 16 -22 12 -28 -3 -6 -3 -8 2 -4 8 8 35 -9 35 -21 0 -4 -13 -6 -30 -3 -22 3
-30 0 -30 -11 0 -8 -7 -20 -15 -27 -8 -7 -13 -16 -10 -20 3 -4 -3 -14 -13 -21
-16 -13 -16 -12 -2 6 14 20 14 20 -7 1 -12 -10 -22 -21 -21 -25 2 -20 -4 -30
-16 -25 -9 3 -13 -1 -13 -12 1 -9 -4 -19 -12 -22 -10 -3 -12 0 -8 12 4 9 3 14
-2 11 -16 -9 -23 15 -10 33 11 14 11 15 -1 5 -19 -18 -33 -16 -26 2 3 9 0 15
-9 15 -29 0 -25 -21 9 -55 34 -33 50 -65 24 -49 -6 4 -8 3 -5 -3 8 -13 77 7
77 23 0 15 127 134 143 134 6 0 3 -7 -7 -15 -11 -8 -16 -15 -11 -15 4 0 -22
-30 -58 -67 -37 -36 -67 -70 -67 -75 0 -5 -9 -4 -20 2 -25 14 -24 -8 2 -27 14
-11 30 1 118 90 56 56 97 92 91 80 -19 -37 2 -25 32 18 16 23 31 39 34 36 12
-13 -62 -100 -139 -162 -105 -86 -111 -92 -68 -69 19 10 68 45 107 77 40 31
78 57 83 57 6 0 9 4 5 9 -6 11 11 24 37 28 12 2 15 -2 11 -12 -4 -11 -9 -13
-18 -5 -9 8 -11 4 -7 -16 4 -24 2 -26 -17 -21 -12 3 -19 1 -15 -5 8 -12 -25
-48 -43 -48 -10 0 -12 -6 -8 -21 5 -15 4 -19 -4 -14 -13 7 -84 -25 -120 -56
-18 -14 -21 -23 -13 -31 7 -7 15 -8 24 -1 7 5 40 20 73 33 33 13 65 26 70 30
6 4 28 13 50 20 22 7 46 17 53 23 7 5 15 7 18 4 10 -10 -6 -26 -44 -44 -20 -9
-41 -23 -45 -30 -5 -7 -12 -11 -17 -8 -9 6 -43 -36 -35 -43 2 -2 24 10 49 27
42 28 57 30 39 5 -19 -25 56 58 86 95 18 23 36 40 38 37 3 -3 -15 -30 -41 -60
-25 -30 -46 -59 -46 -65 0 -6 -3 -11 -8 -11 -4 0 -13 -9 -19 -19 -11 -18 -8
-19 57 -20 42 0 70 4 70 10 0 6 4 8 9 5 5 -3 11 1 15 9 3 8 12 12 21 9 18 -7
21 12 3 20 -8 3 -7 5 2 3 9 -1 18 3 20 8 3 6 25 28 50 50 25 22 95 90 157 152
62 62 117 113 123 113 7 0 -10 -22 -37 -49 -40 -41 -183 -195 -218 -236 -5 -6
-28 -30 -50 -53 -35 -38 -37 -42 -17 -42 14 0 57 35 124 103 145 143 275 266
257 242 -34 -46 -53 -68 -186 -208 -29 -30 -53 -60 -53 -66 0 -6 -4 -11 -9
-11 -5 0 -23 -13 -39 -29 l-29 -30 288 -3 c158 -2 290 -6 293 -9 4 -3 4 -31 0
-62 -7 -56 -7 -57 -43 -62 -118 -17 -209 -55 -228 -95 -10 -19 -13 -246 -15
-980 -2 -784 -4 -868 -8 -470 -3 267 -5 697 -5 955 0 433 1 473 18 512 21 48
57 69 145 85 31 5 71 14 87 18 28 7 27 8 -15 9 -54 1 -130 -18 -187 -48 -82
-41 -76 39 -77 -1088 -1 -1157 -14 -1031 114 -1095 l75 -38 -317 0 c-174 0
-325 -3 -335 -6 -12 -5 -15 -4 -8 3 6 6 42 22 82 37 49 19 82 39 103 62 l30
35 0 499 0 500 -22 5 c-13 3 -270 4 -573 2 l-550 -2 -3 -495 c-2 -576 -7 -544
93 -595 33 -17 73 -35 89 -40 21 -7 -75 -10 -313 -11 -188 0 -338 2 -334 6 4
4 40 19 79 34 75 28 106 53 123 99 8 19 11 339 11 1010 0 929 -1 984 -18 1016
-29 54 -87 89 -177 108 -44 9 -83 19 -88 23 -4 4 184 4 418 2 391 -4 425 -3
431 12 4 9 4 19 2 21 -3 3 -196 8 -429 11 -444 7 -479 4 -479 -35 0 -23 36
-36 120 -46 56 -6 156 -52 154 -70 -1 -5 5 -19 12 -30 22 -30 21 -2011 -1
-2042 -23 -32 -93 -60 -186 -73 -55 -8 -89 -18 -97 -29 -12 -14 -13 -12 -10
14 3 29 5 29 88 42 50 8 108 25 140 41 l55 27 3 348 c1 191 0 347 -2 347 -2 0
-22 -17 -43 -37 -21 -21 -67 -53 -103 -72 -36 -19 -72 -43 -81 -54 -11 -14
-18 -16 -23 -8 -12 19 0 37 38 55 20 9 34 21 31 26 -3 5 0 12 6 16 8 4 9 3 5
-4 -4 -7 -5 -12 -2 -12 9 0 122 78 135 94 20 24 1 20 -28 -6 -14 -13 -5 0 22
28 l47 50 0 127 c0 70 -3 127 -6 127 -4 0 -17 -11 -30 -25 -22 -24 -23 -25 -3
-35 11 -6 17 -16 13 -21 -4 -6 -12 -4 -23 5 -19 18 -46 22 -36 6 3 -5 -1 -10
-9 -10 -18 0 -35 -13 -126 -95 -36 -33 -87 -78 -113 -100 -55 -47 -68 -69 -32
-55 19 7 23 6 19 -5 -3 -8 -21 -17 -40 -21 -51 -9 -56 -28 -6 -21 23 3 42 1
42 -4 0 -5 -9 -9 -20 -9 -11 0 -20 -4 -20 -10 0 -5 -6 -7 -14 -4 -8 3 -17 1
-21 -5 -3 -6 -14 -11 -23 -11 -15 1 -15 2 2 15 11 8 15 15 9 15 -6 0 -16 -7
-23 -16 -14 -16 -50 -38 -50 -30 0 13 145 172 217 239 130 122 137 128 166
145 32 19 34 28 7 42 -16 9 -31 4 -82 -29 -39 -26 -69 -39 -82 -36 -24 6 -54
-10 -43 -22 5 -4 12 -1 17 7 5 8 11 12 14 10 6 -6 -13 -31 -39 -50 -19 -14
-19 -14 -6 3 18 23 8 32 -18 15 -25 -15 -28 -38 -5 -38 13 0 10 -6 -11 -26
-15 -14 -30 -22 -34 -19 -3 4 2 11 12 16 21 12 22 29 2 29 -8 0 -15 -7 -15
-15 0 -22 -46 -38 -71 -24 -20 10 -20 11 -3 32 34 40 79 77 94 77 15 -1 8 -8
-45 -45 -20 -14 -20 -14 0 -14 10 -1 34 13 52 31 l32 31 -25 13 c-20 11 -29
11 -44 2 -11 -7 -23 -8 -27 -4 -4 5 -2 11 5 13 6 3 12 11 12 19 0 12 -5 11
-26 -3 l-26 -17 24 -19 23 -19 -23 5 c-19 4 -22 2 -17 -14 4 -11 2 -19 -4 -19
-6 0 -11 5 -11 12 0 6 -7 4 -18 -5 -10 -10 -21 -17 -25 -17 -3 0 -18 -11 -33
-25 -33 -30 -39 -31 -41 -5 -1 15 4 20 23 20 13 0 24 4 24 10 0 5 18 21 39 36
24 15 38 31 35 39 -4 10 -37 -12 -105 -67 -55 -44 -102 -84 -105 -89 -7 -12
-84 32 -84 48 0 7 8 17 18 22 16 10 16 10 0 11 -10 0 -18 3 -18 8 0 9 95 72
108 72 5 0 21 9 36 21 16 13 33 18 44 14 15 -6 15 -8 -4 -18 -22 -13 -47 -34
-67 -55 -7 -7 -20 -21 -29 -29 -9 -9 -15 -20 -12 -25 3 -5 23 10 44 33 21 23
43 39 49 35 7 -4 9 -1 5 8 -4 10 3 20 20 27 14 7 26 15 26 18 0 4 82 8 182 9
100 2 187 7 193 12 7 6 15 7 18 3 4 -3 7 0 7 8 -1 8 -28 34 -61 59 -34 25 -74
58 -90 73 -16 15 -34 25 -40 21 -8 -4 -7 -9 2 -15 12 -8 11 -11 -1 -19 -13 -8
-12 -12 4 -27 18 -16 19 -16 7 -1 -11 15 -11 19 4 24 12 5 26 -2 45 -24 15
-18 34 -32 41 -32 10 -1 9 -5 -4 -14 -12 -9 -14 -16 -8 -21 6 -3 11 -1 11 4 0
6 7 11 15 11 8 0 15 -4 15 -10 0 -5 7 -10 15 -10 8 0 15 -5 15 -11 0 -7 -7 -8
-17 -4 -32 13 -67 14 -75 2 -4 -7 -16 -2 -34 16 -15 15 -31 27 -35 27 -5 0
-18 9 -28 19 -21 21 -61 37 -61 24 0 -4 25 -21 55 -38 55 -29 63 -39 45 -50
-5 -3 -10 -1 -10 5 0 8 -6 8 -20 0 -11 -6 -24 -9 -28 -6 -4 2 -26 1 -50 -4
-32 -5 -42 -4 -42 6 0 10 -7 11 -30 2 -23 -8 -34 -7 -46 3 -12 10 -17 10 -23
1 -5 -8 -17 -9 -39 -3 -18 5 -32 6 -32 2 0 -4 -7 -8 -14 -8 -8 0 -14 5 -13 11
1 6 -5 11 -13 11 -8 0 -23 10 -33 23 -10 12 -25 22 -33 22 -8 0 -13 4 -9 9 3
5 1 12 -5 16 -6 3 -13 -1 -16 -10 -4 -9 -13 -14 -20 -11 -8 3 -11 0 -7 -10 3
-8 12 -13 20 -9 11 3 13 1 9 -10 -4 -11 2 -15 23 -15 16 0 35 -7 42 -16 12
-15 10 -16 -21 -9 -19 4 -41 12 -47 17 -19 15 -44 2 -36 -19 6 -16 5 -16 -10
-4 -9 7 -24 11 -32 7 -9 -3 -18 0 -21 7 -3 8 -16 12 -33 9 -16 -2 -37 1 -48 7
-15 9 -13 10 12 4 26 -5 28 -4 17 9 -22 28 -50 28 -67 1 -9 -14 -14 -27 -11
-31 3 -3 6 0 6 6 0 18 14 15 39 -9 14 -13 30 -19 43 -16 23 7 70 -12 62 -24
-3 -5 -1 -9 5 -9 5 0 12 4 15 8 7 12 74 13 81 2 8 -13 25 -13 25 -1 0 5 -13
12 -30 16 -16 4 -30 11 -30 16 0 8 33 -1 70 -21 12 -6 28 -7 43 -1 48 18 37
-3 -20 -39 -67 -42 -89 -65 -73 -75 15 -9 12 -25 -4 -25 -17 0 -29 27 -15 36
6 3 8 12 6 19 -3 6 3 19 14 28 23 20 25 37 4 37 -8 0 -15 -4 -15 -10 0 -6 -22
-7 -55 -4 -30 3 -55 1 -55 -3 0 -12 59 -33 76 -26 8 3 14 -1 14 -8 0 -12 -69
-64 -104 -80 -5 -2 -27 -21 -50 -41 -41 -38 -56 -46 -56 -29 0 11 58 61 71 61
6 0 7 4 4 10 -3 6 1 10 9 10 8 0 19 6 23 13 4 6 20 18 36 26 26 14 36 31 19
31 -15 0 -134 -83 -139 -97 -3 -7 -11 -13 -19 -13 -16 0 -19 -37 -5 -59 8 -12
15 -12 46 3 20 10 39 24 42 32 3 8 11 14 19 14 7 0 17 6 21 14 4 7 23 21 41
30 28 14 32 15 32 1 0 -8 -4 -15 -10 -15 -5 0 -10 -7 -10 -15 0 -17 25 -20 35
-5 12 20 26 10 15 -10 -13 -24 -36 -26 -56 -5 -11 11 -20 12 -34 5 -23 -13
-16 -35 13 -45 19 -6 20 -8 4 -12 -10 -3 -24 1 -32 7 -18 15 -80 -15 -106 -51
-23 -32 -33 -69 -20 -69 6 0 11 7 11 16 0 20 39 53 63 54 13 0 17 5 13 18 -5
14 -1 17 18 17 27 -2 56 -21 56 -37 0 -6 -7 -5 -15 2 -14 12 -54 6 -42 -6 11
-11 -19 -32 -49 -36 -23 -2 -31 -10 -40 -38 -12 -36 -8 -64 6 -55 5 3 11 1 14
-4 3 -5 -4 -11 -17 -15 -17 -5 -19 -8 -8 -15 8 -5 14 -23 13 -40 0 -21 4 -31
14 -31 8 0 14 7 14 15 0 8 9 15 20 15 11 0 20 -7 20 -15 0 -8 -6 -12 -14 -9
-8 3 -24 -8 -37 -25 l-24 -30 -2 27 c-1 15 -3 37 -3 50 0 13 -5 20 -10 17 -6
-3 -10 2 -11 12 0 10 -2 26 -4 35 -23 121 -37 290 -31 388 13 246 56 441 141
652 89 217 170 354 204 343 10 -3 24 1 31 10 7 8 18 15 26 15 7 0 22 10 34 22
11 12 20 16 20 10 0 -9 10 -8 33 4 50 26 107 76 100 87 -3 6 -2 8 3 4 13 -8
47 20 39 33 -9 15 -38 8 -54 -13 -7 -10 -20 -16 -28 -13 -8 3 -12 2 -9 -3 3
-4 -3 -16 -14 -26 -11 -10 -20 -15 -20 -12 0 4 -8 -1 -18 -10 -11 -10 -17 -21
-16 -24 2 -3 -7 -5 -19 -4 -13 1 -26 -7 -32 -19 -6 -13 -21 -21 -36 -22 -13 0
-30 -4 -37 -8 -35 -21 -17 29 38 109 37 54 66 84 119 123 25 17 41 32 35 32
-17 0 -113 -70 -124 -90 -6 -11 -15 -18 -21 -15 -5 4 -9 0 -9 -8 0 -8 -11 -27
-24 -42 -14 -16 -24 -31 -23 -34 2 -10 -30 -64 -50 -86 -21 -22 -94 -147 -143
-244 -112 -224 -186 -526 -190 -776 0 -51 -4 -75 -9 -65 -5 8 -8 46 -7 85 3
99 -7 137 -15 55 -5 -49 -5 -45 -2 20 6 119 19 235 28 250 2 3 6 25 10 49 8
58 78 255 126 359 22 46 39 85 39 87 0 2 23 43 52 92 141 240 253 369 488 565
223 185 584 351 893 410 81 16 117 27 117 36 0 17 -35 12 -224 -34 -352 -87
-646 -245 -934 -503 -125 -113 -201 -201 -301 -352 -218 -327 -322 -647 -347
-1064 -4 -61 -9 -112 -12 -115 -7 -8 7 263 19 360 52 406 259 828 558 1133
298 305 716 527 1139 603 l102 19 0 57 c0 34 -4 58 -11 58 -24 0 -159 -22
-219 -36 -91 -21 -268 -79 -370 -121 -569 -234 -1029 -723 -1230 -1308 -87
-254 -114 -422 -114 -720 0 -267 21 -426 84 -624 17 -52 29 -95 27 -97 -10
-11 -141 351 -135 374 1 4 -4 25 -12 47 -12 31 -15 98 -14 310 0 250 2 278 25
380 l25 110 -38 65 c-21 36 -38 72 -38 81 0 8 -5 20 -12 27 -6 6 -13 22 -14
34 -1 13 -7 41 -12 63 -16 67 -23 127 -13 121 5 -3 12 -27 16 -53 13 -86 97
-313 116 -313 3 0 12 26 19 58 45 204 218 554 374 757 126 164 309 353 431
446 180 138 428 270 650 346 107 36 309 83 391 90 l74 6 0 31 c0 79 -42 178
-103 245 l-38 42 -104 -55 c-170 -90 -281 -170 -391 -282 l-101 -103 -56 6
c-127 13 -307 -73 -474 -227 -44 -40 -53 -56 -77 -135 -49 -158 -125 -280
-228 -367 -52 -46 -166 -109 -218 -122 -21 -5 -21 -4 5 10 l30 15 -30 -5 c-17
-3 -37 -1 -45 5 -10 6 0 9 34 9 101 0 233 104 312 246 54 97 134 314 116 314
-4 0 -31 -31 -61 -69 -65 -84 -116 -123 -246 -190 -70 -36 -117 -54 -155 -58
-30 -3 -58 -10 -61 -15 -9 -15 -39 3 -39 23 0 20 34 27 45 9 9 -15 52 -12 88
6 59 30 126 85 141 114 17 34 4 40 -27 13 -19 -17 -20 -17 -8 4 16 32 14 38
-9 18 -11 -10 -20 -15 -20 -10 0 10 47 65 52 60 2 -3 4 13 4 35 -1 25 -6 40
-13 40 -7 0 -13 -8 -13 -18 0 -11 -8 -27 -19 -36 -18 -16 -18 -15 -14 11 3 21
2 24 -6 13 -15 -22 -24 -5 -10 18 24 39 -1 66 -88 98 -151 55 -273 35 -385
-65 -89 -80 -140 -233 -117 -357 6 -32 24 -88 40 -124 35 -79 8 -49 -32 36
-80 167 -47 350 87 480 77 75 141 98 259 90 50 -3 103 -8 119 -12 17 -4 27 -3
23 3 -6 9 22 134 32 143 3 3 13 18 21 34 28 55 165 121 197 95 20 -17 16 -38
-6 -32 -32 8 -115 -25 -149 -60 -37 -38 -52 -81 -52 -148 0 -46 1 -47 63 -88
35 -22 74 -55 86 -72 l24 -32 22 69 c29 87 31 64 5 -61 -11 -53 -20 -103 -20
-111 0 -26 22 -14 74 40 56 58 103 145 130 239 16 56 36 76 36 36 0 -34 18
-12 25 31 4 23 12 40 20 40 7 0 22 15 34 33 31 51 111 122 174 157 32 17 61
29 65 26 3 -3 1 -6 -5 -6 -12 0 -63 -49 -63 -61 0 -7 107 29 193 65 76 33 34
5 -70 -46 -89 -44 -121 -66 -183 -128 -73 -72 -119 -146 -134 -213 l-7 -28 28
16 c15 9 57 40 92 69 121 101 305 175 404 162 l48 -7 97 98 c142 144 334 267
526 339 98 36 126 38 52 3 -45 -21 -46 -22 -26 -36 11 -8 20 -20 20 -26 1 -19
50 -75 50 -57 0 9 3 11 8 5 4 -5 18 -19 31 -30 l24 -20 -6 49 c-6 48 -6 48 13
31 11 -10 20 -24 20 -31 0 -7 5 -16 10 -19 16 -10 12 32 -5 49 -8 8 -15 19
-15 25 0 6 -8 11 -17 12 -13 0 -12 3 5 10 13 5 27 7 32 4 11 -7 26 -78 46
-217 19 -130 42 -165 30 -45 -4 39 -12 115 -17 167 -6 52 -11 105 -12 118 -1
12 -6 22 -12 23 -5 0 1 5 14 10 21 8 22 11 9 27 -8 9 -19 24 -23 32 -7 12 -5
12 11 -1 29 -25 89 -29 103 -7 17 28 13 36 -21 43 -30 7 -31 8 -13 21 24 18
46 18 39 0z m1496 -42 c0 -8 -4 -12 -10 -9 -5 3 -10 10 -10 16 0 5 5 9 10 9 6
0 10 -7 10 -16z m-1015 -113 c313 -153 417 -228 562 -404 18 -21 30 -26 54
-23 35 4 27 -9 -11 -19 -22 -5 -36 6 -111 87 -123 134 -216 201 -409 297 -207
103 -272 137 -293 154 -20 16 -19 16 18 -1 22 -10 108 -51 190 -91z m-610 61
c-3 -4 -10 -1 -14 6 -6 10 -15 10 -35 2 -44 -16 -45 -10 -1 10 35 17 41 17 48
4 5 -9 6 -18 2 -22z m915 -4 c68 -24 119 -47 104 -48 -13 0 -206 69 -214 76
-8 8 48 -6 110 -28z m-2170 12 c0 -5 -5 -10 -11 -10 -5 0 -7 5 -4 10 3 6 8 10
11 10 2 0 4 -4 4 -10z m178 -12 c7 -7 12 -19 12 -27 -1 -13 -2 -13 -11 2 -14
24 -75 22 -116 -3 -34 -21 -41 -17 -20 11 21 28 113 39 135 17z m2813 -18 c17
-13 19 -19 9 -19 -16 0 -50 22 -50 33 0 12 18 6 41 -14z m-3535 -10 c34 -6 83
-20 110 -32 27 -12 55 -23 62 -24 7 -1 70 -31 140 -67 70 -35 141 -67 157 -71
41 -10 95 -37 95 -46 0 -15 -184 45 -215 70 -5 4 -25 11 -42 15 -18 3 -33 11
-33 15 0 5 -7 7 -16 3 -12 -4 -13 -7 -3 -14 8 -4 10 -11 7 -14 -4 -4 6 -25 22
-47 33 -45 64 -129 57 -155 -3 -12 -5 -10 -6 7 -2 42 -57 146 -100 189 -24 24
-36 43 -30 47 13 8 -8 24 -31 24 -13 0 -13 -1 0 -10 8 -5 11 -10 5 -10 -15 1
-46 26 -39 32 7 8 -19 10 -141 11 -86 2 -105 -1 -130 -18 l-30 -20 57 -8 57
-9 -59 -40 c-56 -37 -62 -39 -94 -28 -40 13 -61 54 -51 98 10 47 65 89 135
103 50 10 49 10 116 -1z m845 -63 c-16 -16 -31 3 -31 36 l0 32 20 -30 c11 -17
16 -33 11 -38z m3362 3 c23 -22 36 -40 29 -40 -7 0 -15 7 -19 15 -3 9 -22 27
-42 40 -19 14 -30 25 -23 25 7 0 32 -18 55 -40z m-3662 6 c-21 -25 -67 -36
-88 -21 -22 16 -11 22 52 28 22 2 42 4 44 5 2 1 -2 -4 -8 -12z m2546 8 c-3 -3
-12 -4 -19 -1 -8 3 -5 6 6 6 11 1 17 -2 13 -5z m412 -17 c15 -19 7 -24 -28
-19 -20 3 -28 8 -24 18 7 18 37 18 52 1z m-271 -34 c49 -25 69 -39 57 -42 -21
-4 -145 56 -145 70 0 14 9 11 88 -28z m896 15 c9 -12 14 -23 13 -24 -2 -2 -21
3 -42 11 -22 8 -56 15 -75 16 -32 1 -33 2 -10 9 51 16 98 11 114 -12z m-3014
-13 c7 -8 11 -15 9 -15 -2 0 -28 -9 -57 -20 -30 -11 -51 -16 -47 -10 4 6 -12
10 -42 11 l-48 0 50 14 c28 8 64 19 80 24 41 13 41 13 55 -4z m-630 -41 c0 -8
-4 -12 -10 -9 -5 3 -10 10 -10 16 0 5 5 9 10 9 6 0 10 -7 10 -16z m304 -4 c15
-14 -56 -22 -109 -12 -32 6 -40 10 -22 11 15 0 27 6 27 12 0 13 89 3 104 -11z
m2696 0 c0 -5 -4 -10 -10 -10 -5 0 -10 5 -10 10 0 6 5 10 10 10 6 0 10 -4 10
-10z m645 -1 c10 -15 -1 -23 -20 -15 -9 3 -13 10 -10 16 8 13 22 13 30 -1z
m100 -39 c-10 -11 -23 -20 -28 -20 -6 0 0 11 13 25 27 29 42 25 15 -5z m-3880
-76 c18 -39 45 -141 45 -173 0 -40 -11 -17 -26 54 -16 74 -49 159 -70 176 -8
6 -14 17 -14 23 1 15 46 -41 65 -80z m3552 56 c-19 -16 -49 -58 -68 -92 -33
-61 -34 -66 -33 -173 1 -89 6 -125 27 -190 15 -43 25 -81 23 -82 -2 -2 -15 23
-29 54 -49 109 -58 304 -17 382 23 46 100 131 119 131 6 0 -3 -13 -22 -30z
m-2947 15 c0 -3 -24 -17 -52 -30 -40 -19 -70 -25 -121 -25 -38 0 -76 -4 -86
-9 -9 -5 -37 -7 -62 -3 l-44 7 60 7 c141 17 203 27 245 42 51 17 60 18 60 11z
m-850 -31 c0 -2 -9 -4 -20 -4 -11 0 -20 4 -20 9 0 5 9 7 20 4 11 -3 20 -7 20
-9z m3990 6 c13 -8 13 -10 -2 -10 -9 0 -20 5 -23 10 -8 13 5 13 25 0z m-4050
-50 c11 -7 7 -10 -18 -10 -20 0 -31 4 -27 10 8 13 26 13 45 0z m3528 -223 c31
-44 67 -92 80 -106 23 -25 23 -25 19 -3 -3 12 -1 19 4 16 6 -3 9 -13 7 -23 -3
-18 26 -63 84 -130 65 -75 42 -66 -32 12 -39 41 -110 128 -158 193 -49 66 -96
125 -106 133 -9 8 -27 28 -39 45 -19 28 -16 27 31 -13 29 -24 79 -80 110 -124z
m397 113 c40 -15 93 -62 106 -93 18 -44 6 -41 -28 7 -20 28 -49 52 -84 69 -51
26 -47 37 6 17z m-717 -118 c119 -58 156 -78 207 -111 33 -22 73 -52 89 -66
16 -14 32 -25 35 -25 8 0 27 -37 90 -172 81 -175 172 -294 295 -385 62 -46 60
-56 -4 -23 -58 30 -170 139 -227 223 -62 88 -84 133 -129 250 -19 50 -40 97
-46 105 -19 22 -146 102 -248 155 -52 27 -97 51 -99 53 -8 7 19 4 37 -4z
m-861 -128 c-3 -3 -12 -4 -19 -1 -8 3 -5 6 6 6 11 1 17 -2 13 -5z m1202 -59
c0 -5 -9 1 -19 14 -11 13 -20 28 -20 35 0 6 9 0 20 -14 11 -14 20 -29 19 -35z
m836 29 c89 -37 187 -173 200 -277 l5 -42 -19 52 c-39 104 -121 196 -222 251
-24 12 -45 24 -47 27 -12 12 49 4 83 -11z m-2012 -25 c9 0 17 -5 17 -10 0 -6
4 -8 8 -5 4 2 39 -4 77 -15 101 -29 105 -30 105 -41 0 -6 -8 -7 -17 -3 -22 8
-95 29 -185 51 -38 10 -68 22 -68 27 0 5 10 6 23 2 12 -4 30 -7 40 -6z m1604
-30 c-20 -17 -37 -37 -37 -45 0 -8 -4 -14 -10 -14 -26 0 -7 42 32 70 52 38 64
30 15 -11z m-4139 -8 c63 -30 72 -37 66 -55 -9 -30 -14 -33 -24 -16 -8 12 -10
9 -10 -10 0 -15 -5 -31 -12 -38 -22 -22 5 -12 30 11 14 12 21 15 17 7 -26 -46
-52 -70 -94 -86 -25 -9 -49 -22 -53 -28 -9 -13 -47 21 -59 53 -5 13 -7 32 -3
43 7 23 77 57 117 58 31 0 33 6 10 32 -40 45 -216 -3 -308 -83 -20 -18 -40
-40 -46 -50 -9 -17 -7 -18 16 -9 52 20 175 6 175 -20 0 -4 -31 -6 -69 -6 -68
1 -71 0 -110 -39 -23 -21 -41 -42 -41 -46 0 -3 42 -4 93 -2 50 2 98 0 106 -5
26 -18 0 -32 -63 -32 -71 0 -86 -10 -86 -57 0 -61 85 -133 202 -169 60 -18 70
-38 15 -27 -121 22 -237 125 -239 212 -1 18 -6 31 -14 31 -15 0 -23 -111 -11
-158 11 -45 77 -108 127 -123 36 -11 40 -15 26 -24 -9 -7 -16 -17 -16 -24 0
-6 -11 -11 -23 -11 -26 0 -47 -19 -70 -66 -19 -37 -220 -539 -272 -679 -66
-176 -167 -351 -237 -410 l-30 -25 64 -69 c106 -114 154 -215 343 -711 36 -96
86 -226 110 -288 50 -124 49 -122 35 -122 -15 0 -30 34 -168 390 -206 529
-245 608 -364 735 l-59 63 55 55 c91 90 168 225 255 444 109 273 188 464 228
553 45 98 55 130 49 146 -4 12 -2 15 9 10 8 -3 22 -3 31 1 11 4 7 10 -18 25
-49 30 -78 59 -99 100 -22 43 -24 52 -8 42 7 -4 9 -2 6 7 -3 8 -12 33 -19 57
-7 23 -16 42 -20 42 -12 0 -9 143 4 181 68 198 263 279 456 190z m4503 9 c78
-42 169 -173 169 -242 -1 -31 -1 -32 -15 -14 -8 11 -15 28 -15 39 0 22 -48 86
-100 135 -52 49 -130 92 -170 93 -31 1 -32 2 -10 8 30 8 109 -3 141 -19z
m-821 -32 c0 -6 -7 -5 -15 2 -8 7 -15 17 -15 22 0 6 7 5 15 -2 8 -7 15 -17 15
-22z m628 15 c-10 -2 -28 -2 -40 0 -13 2 -5 4 17 4 22 1 32 -1 23 -4z m161
-50 c49 -27 101 -71 101 -86 0 -5 -20 9 -45 31 -25 22 -74 52 -108 66 -43 18
-52 24 -28 20 19 -3 55 -18 80 -31z m-1689 23 c0 -3 -4 -8 -10 -11 -5 -3 -10
-1 -10 4 0 6 5 11 10 11 6 0 10 -2 10 -4z m50 -26 c0 -5 -2 -10 -4 -10 -3 0
-8 5 -11 10 -3 6 -1 10 4 10 6 0 11 -4 11 -10z m1197 -22 c-3 -8 -6 -5 -6 6
-1 11 2 17 5 13 3 -3 4 -12 1 -19z m188 12 c3 -5 1 -10 -4 -10 -6 0 -11 5 -11
10 0 6 2 10 4 10 3 0 8 -4 11 -10z m-1865 -24 c0 -3 -4 -8 -10 -11 -5 -3 -10
-1 -10 4 0 6 5 11 10 11 6 0 10 -2 10 -4z m585 -6 c13 -6 15 -9 5 -9 -8 0 -22
4 -30 9 -18 12 -2 12 25 0z m-655 -24 c0 -3 -4 -8 -10 -11 -5 -3 -10 -1 -10 4
0 6 5 11 10 11 6 0 10 -2 10 -4z m-2190 -19 c0 -2 -10 -12 -22 -23 l-23 -19
19 23 c18 21 26 27 26 19z m4105 -27 c3 -5 30 -10 58 -10 37 0 48 -3 37 -10
-24 -16 -63 -11 -95 10 -16 11 -25 20 -18 20 6 0 15 -4 18 -10z m372 -10 c34
-20 57 -54 50 -73 -2 -7 -10 0 -17 16 -7 15 -19 27 -25 27 -7 0 -19 7 -26 16
-11 13 -26 15 -71 11 -32 -3 -58 -1 -58 3 0 26 105 26 147 0z m-2260 -24 c-4
-10 -13 -13 -23 -9 -15 6 -15 7 1 20 21 15 30 10 22 -11z m1722 -33 c30 -21
57 -44 59 -52 5 -15 -64 31 -120 81 -40 35 -13 22 61 -29z m-1809 17 c0 -5 -5
-10 -11 -10 -5 0 -7 5 -4 10 3 6 8 10 11 10 2 0 4 -4 4 -10z m285 -30 c3 -5 2
-10 -4 -10 -5 0 -13 5 -16 10 -3 6 -2 10 4 10 5 0 13 -4 16 -10z m-25 -20 c0
-5 -4 -10 -10 -10 -5 0 -10 5 -10 10 0 6 5 10 10 10 6 0 10 -4 10 -10z m160
-14 c0 -3 -4 -8 -10 -11 -5 -3 -10 -1 -10 4 0 6 5 11 10 11 6 0 10 -2 10 -4z
m310 -17 c0 -5 -4 -9 -10 -9 -5 0 -10 7 -10 16 0 8 5 12 10 9 6 -3 10 -10 10
-16z m1717 -1 c-3 -8 -6 -5 -6 6 -1 11 2 17 5 13 3 -3 4 -12 1 -19z m-69 3 c6
0 12 -4 12 -8 0 -5 -40 -8 -90 -8 -83 0 -99 3 -85 16 4 4 120 4 163 0z m-2028
-5 c0 -2 -7 -9 -15 -16 -13 -11 -14 -10 -9 4 5 14 24 23 24 12z m105 -6 c3 -5
1 -10 -4 -10 -6 0 -11 5 -11 10 0 6 2 10 4 10 3 0 8 -4 11 -10z m1655 1 c0
-14 -41 -41 -60 -40 -10 0 -11 2 -2 6 6 2 12 11 12 18 0 13 14 23 38 24 6 1
12 -3 12 -8z m-1716 -13 c-15 -26 -146 -168 -155 -168 -15 0 -10 25 9 42 9 9
44 43 77 77 55 56 86 79 69 49z m310 -10 c-3 -4 -9 -8 -15 -8 -5 0 -9 4 -9 8
0 5 7 9 15 9 8 0 12 -4 9 -9z m-2695 -30 c-22 -41 -107 -115 -163 -141 -63
-30 -130 -44 -140 -29 -3 5 13 12 38 14 73 9 153 52 215 118 31 32 57 59 59
60 1 0 -3 -10 -9 -22z m2401 -8 c0 -5 -5 -10 -11 -10 -5 0 -7 5 -4 10 3 6 8
10 11 10 2 0 4 -4 4 -10z m232 -20 c12 -11 17 -20 11 -20 -5 0 -18 9 -28 20
-10 11 -15 20 -11 20 4 0 16 -9 28 -20z m-2996 -62 c11 -13 26 -32 34 -42 13
-17 13 -18 0 -10 -8 5 -32 20 -53 33 -28 18 -35 26 -25 32 19 12 22 11 44 -13z
m4660 -16 c-17 -16 -18 -16 -5 5 7 12 15 20 18 17 3 -2 -3 -12 -13 -22z
m-1691 8 c3 -5 2 -10 -4 -10 -5 0 -13 5 -16 10 -3 6 -2 10 4 10 5 0 13 -4 16
-10z m1505 7 c0 -2 -9 -12 -20 -22 -24 -21 -27 -14 -4 9 15 15 24 20 24 13z
m-1525 -45 c-8 -2 -22 3 -30 12 -24 23 -18 27 15 8 20 -11 25 -18 15 -20z
m159 13 c11 -8 16 -15 10 -15 -5 0 -18 7 -28 15 -11 8 -16 15 -10 15 5 0 18
-7 28 -15z m-204 -11 c0 -2 -7 -4 -15 -4 -8 0 -15 4 -15 10 0 5 7 7 15 4 8 -4
15 -8 15 -10z m1453 -36 c9 0 17 -3 17 -9 0 -14 -32 -10 -60 7 l-25 15 25 -7
c14 -4 33 -7 43 -6z m351 -40 c-26 -31 -36 -38 -58 -38 -13 0 -5 9 25 30 53
36 58 37 33 8z m-4958 -53 c-16 -33 -181 -440 -285 -703 -83 -208 -151 -328
-237 -418 -51 -54 -43 -41 33 52 57 70 139 224 183 345 17 46 35 93 40 104 5
11 61 155 125 321 74 191 113 307 109 318 -6 16 -5 17 15 5 12 -8 19 -18 17
-24z m4997 8 c22 -25 40 -69 199 -483 77 -201 156 -396 175 -434 49 -100 128
-209 191 -267 57 -53 61 -64 18 -53 -15 3 -25 8 -24 10 2 2 -30 38 -72 82
-103 107 -148 193 -285 547 -209 539 -225 575 -263 575 -14 1 -12 5 7 20 29
24 34 25 54 3z m-1488 -323 c3 -5 1 -10 -4 -10 -6 0 -11 5 -11 10 0 6 2 10 4
10 3 0 8 -4 11 -10z m135 -4 c0 -9 -30 -14 -35 -6 -4 6 3 10 14 10 12 0 21 -2
21 -4z m1204 -108 c-4 -34 -4 -34 -14 -18 -5 9 -5 19 2 27 14 17 15 17 12 -9z
m-1159 -48 c-3 -5 -12 -10 -18 -10 -7 0 -6 4 3 10 19 12 23 12 15 0z m1145 -5
c0 -3 -4 -13 -9 -23 -5 -9 -17 -38 -26 -64 -9 -27 -21 -48 -26 -48 -12 0 -12
2 7 39 9 17 17 37 19 44 9 37 18 57 26 57 5 0 9 -2 9 -5z m-1195 -31 c-38 -30
-61 -36 -32 -10 15 14 33 26 40 26 7 0 3 -8 -8 -16z m65 -74 c0 -5 -8 -10 -17
-10 -15 0 -16 2 -3 10 19 12 20 12 20 0z m-160 -20 c0 -5 -4 -10 -10 -10 -5 0
-10 5 -10 10 0 6 5 10 10 10 6 0 10 -4 10 -10z m1203 -71 c-14 -27 -27 -48
-30 -46 -5 6 39 97 48 97 4 0 -4 -23 -18 -51z m-947 -7 c-8 -14 -77 -21 -73
-8 2 6 18 10 36 10 17 -1 31 3 31 9 0 6 3 8 6 4 3 -3 3 -10 0 -15z m-89 -15
c-2 -6 -17 -14 -34 -18 -38 -7 -153 -61 -153 -71 0 -5 -12 -8 -26 -8 -22 0
-24 3 -15 14 38 45 240 118 228 83z m1608 -387 c35 -52 73 -106 85 -118 14
-15 19 -27 13 -33 -12 -12 -13 -10 -85 97 -74 108 -120 193 -157 287 -45 113
-38 107 25 -23 30 -63 84 -158 119 -210z m-1712 280 c-3 -11 -9 -20 -13 -20
-5 0 -6 9 -3 20 3 11 9 20 13 20 5 0 6 -9 3 -20z m-133 -14 c0 -2 -9 -6 -20
-9 -11 -3 -18 -1 -14 4 5 9 34 13 34 5z m219 -99 c-115 -110 -184 -167 -205
-167 -16 0 40 56 107 106 16 11 60 51 100 88 39 37 73 65 77 62 3 -4 -33 -43
-79 -89z m-109 -151 c0 -3 -4 -8 -10 -11 -5 -3 -10 -1 -10 4 0 6 5 11 10 11 6
0 10 -2 10 -4z m-37 -63 c-7 -2 -21 -2 -30 0 -10 3 -4 5 12 5 17 0 24 -2 18
-5z m90 -4 c-13 -4 -33 -5 -45 0 -18 7 -14 9 22 9 36 0 40 -2 23 -9z m77 7 c0
-2 -7 -7 -16 -10 -8 -3 -12 -2 -9 4 6 10 25 14 25 6z m-700 -43 c0 -5 -236 -7
-523 -5 l-524 3 -6 -188 c-4 -104 -7 -317 -7 -475 l0 -288 38 -23 c63 -39 106
-49 252 -56 13 -1 13 -3 0 -16 -13 -12 -25 -12 -98 0 -90 16 -132 34 -174 73
l-28 26 0 478 0 478 535 0 c294 0 535 -3 535 -7z m-1460 -32 c0 -5 -9 -13 -21
-16 -34 -11 -88 -49 -89 -62 0 -7 -3 -12 -8 -10 -4 1 -18 -8 -32 -20 -13 -13
-29 -23 -34 -23 -15 1 95 101 139 127 24 15 45 16 45 4z m1955 -1 c3 -5 1 -10
-4 -10 -6 0 -11 5 -11 10 0 6 2 10 4 10 3 0 8 -4 11 -10z m-3837 -134 c48 -70
60 -93 102 -190 34 -81 16 -62 -24 24 -20 44 -66 124 -101 177 -36 52 -56 88
-45 78 10 -9 41 -49 68 -89z m779 82 c-3 -8 -6 -5 -6 6 -1 11 2 17 5 13 3 -3
4 -12 1 -19z m653 14 c0 -4 -9 -13 -20 -20 -23 -14 -26 -8 -7 13 13 16 27 19
27 7z m437 -8 c-3 -3 -12 -4 -19 -1 -8 3 -5 6 6 6 11 1 17 -2 13 -5z m-552
-31 c-1 -10 -8 -17 -15 -15 -6 1 -9 -2 -6 -7 7 -10 -52 -57 -60 -48 -4 3 75
86 83 87 1 0 0 -8 -2 -17z m555 -3 c-8 -5 -15 -15 -15 -21 0 -7 -8 -13 -18
-15 -18 -2 -18 -2 0 19 23 28 36 37 42 31 3 -3 -1 -9 -9 -14z m-495 1 c-9 -16
34 -34 49 -22 10 8 17 7 27 -6 13 -15 12 -16 -9 -11 -16 4 -22 2 -20 -7 2 -8
-1 -14 -5 -14 -8 0 -47 -64 -47 -77 0 -3 7 -4 15 0 8 3 15 1 15 -3 0 -5 -7
-11 -15 -15 -8 -3 -15 -1 -15 4 0 5 -8 7 -17 3 -15 -5 -16 -3 -5 8 18 20 15
24 -18 24 -19 0 -29 -4 -26 -12 3 -6 -2 -14 -10 -17 -22 -8 -17 12 11 40 23
23 27 24 41 9 17 -16 36 -11 32 8 -1 7 3 22 10 33 10 19 9 21 -6 20 -9 0 -16
5 -14 12 2 10 -2 10 -18 2 -16 -8 -18 -8 -14 4 3 8 13 17 22 19 10 3 18 5 20
6 2 0 1 -3 -3 -8z m392 -45 c-26 -23 -47 -45 -47 -49 0 -10 39 10 66 35 18 16
22 17 27 4 4 -10 1 -13 -9 -9 -7 3 -14 0 -14 -7 0 -6 9 -14 20 -17 11 -3 17
-10 14 -15 -3 -5 -14 -2 -24 7 -15 14 -22 14 -42 3 -12 -7 -25 -16 -28 -20 -3
-4 -16 -5 -29 -1 -21 5 -20 8 24 49 25 24 50 44 56 44 5 0 9 7 9 16 0 9 5 12
12 8 8 -5 -4 -21 -35 -48z m-191 29 c-8 -8 -18 -15 -22 -15 -3 0 -1 7 6 15 7
8 17 15 22 15 5 0 3 -7 -6 -15z m-799 -37 c-3 -8 -6 -5 -6 6 -1 11 2 17 5 13
3 -3 4 -12 1 -19z m373 2 c0 -13 7 -20 20 -20 14 0 20 -7 20 -21 0 -11 4 -18
8 -15 10 6 20 -2 50 -35 17 -20 20 -28 10 -32 -8 -2 -23 2 -33 10 -18 14 -18
15 -2 9 13 -4 17 -2 15 6 -3 7 -14 13 -25 14 -28 2 -45 14 -40 28 3 7 0 13 -6
14 -7 1 -24 4 -40 8 -22 5 -26 4 -21 -10 4 -11 0 -16 -14 -16 -12 0 -24 5 -27
10 -3 6 1 10 9 10 9 0 25 14 38 30 25 35 38 38 38 10z m173 -5 c-5 -14 -17
-19 -36 -16 -5 1 -5 -4 -1 -10 7 -12 -12 -29 -33 -29 -7 0 -13 5 -13 10 0 6 6
10 13 10 6 1 23 14 36 30 24 29 45 32 34 5z m217 13 c0 -4 -7 -8 -15 -8 -9 0
-12 -6 -9 -15 6 -16 -20 -21 -50 -9 -23 9 -20 27 3 19 11 -3 21 0 24 8 5 14
47 18 47 5z m134 -42 c-3 -9 -16 -16 -28 -16 -20 0 -20 1 4 20 28 21 33 20 24
-4z m-204 -38 c0 -5 -6 -8 -12 -8 -7 0 -14 11 -14 26 -2 23 -1 24 12 7 7 -10
14 -21 14 -25z m-1599 -23 l10 -20 -16 20 c-9 11 -21 29 -26 40 l-10 20 16
-20 c9 -11 21 -29 26 -40z m1315 -34 c-6 -2 -15 -9 -19 -15 -6 -7 -7 -5 -4 6
8 24 -4 30 -20 10 -12 -15 -13 -14 -7 9 7 34 -11 46 -36 24 -13 -11 -20 -13
-25 -5 -8 13 -8 13 19 27 16 9 28 5 62 -21 23 -17 37 -33 30 -35z m240 60 c-3
-5 2 -12 11 -15 13 -5 4 -18 -43 -62 -32 -31 -72 -63 -88 -71 -20 -11 -11 2
30 41 32 30 64 55 70 56 6 0 10 10 10 23 -2 23 2 37 10 37 3 0 3 -4 0 -9z
m354 -11 c-19 -12 -30 -12 -30 -1 0 10 31 20 40 14 2 -2 -2 -8 -10 -13z m766
-2 c-18 -10 -46 -4 -46 10 0 5 14 6 31 4 26 -4 29 -6 15 -14z m184 -3 c-12
-15 -4 -21 23 -16 5 1 6 -3 2 -9 -3 -5 -15 -10 -27 -10 -14 0 -18 -5 -14 -15
3 -9 -3 -19 -14 -25 -11 -6 -19 -14 -18 -18 2 -8 -48 -108 -63 -126 -5 -6 -40
-58 -78 -116 -71 -109 -131 -184 -131 -163 0 6 17 33 38 60 60 78 102 140 102
152 0 6 5 11 10 11 6 0 10 5 10 11 0 6 15 34 34 62 19 29 52 86 73 127 48 93
54 103 60 96 3 -3 0 -12 -7 -21z m-1060 3 c0 -5 12 -8 26 -8 15 0 23 -4 19
-11 -4 -6 -13 -8 -21 -5 -7 3 -16 1 -19 -4 -10 -17 -25 -11 -18 7 5 12 -1 11
-25 -7 -17 -13 -28 -28 -25 -33 3 -6 1 -7 -5 -3 -28 17 5 71 43 71 14 0 25 -3
25 -7z m760 -16 c0 -4 -9 -13 -20 -20 -24 -15 -26 -9 -4 12 17 18 24 20 24 8z
m-1365 -12 c3 -5 -1 -10 -9 -10 -8 0 -18 5 -21 10 -3 6 1 10 9 10 8 0 18 -4
21 -10z m1547 -12 c-7 -7 -12 -8 -12 -2 0 6 3 14 7 17 3 4 9 5 12 2 2 -3 -1
-11 -7 -17z m-1257 -7 c-3 -6 -11 -11 -17 -11 -6 0 -6 6 2 15 14 17 26 13 15
-4z m1305 9 c0 -5 -5 -10 -11 -10 -5 0 -7 5 -4 10 3 6 8 10 11 10 2 0 4 -4 4
-10z m-1633 -6 c-3 -3 -12 -4 -19 -1 -8 3 -5 6 6 6 11 1 17 -2 13 -5z m255
-14 c-12 -11 -25 -20 -31 -20 -5 0 -11 -6 -14 -12 -2 -7 -8 -10 -12 -6 -9 9
12 29 45 45 35 16 37 16 12 -7z m548 10 c0 -5 -5 -10 -11 -10 -5 0 -7 5 -4 10
3 6 8 10 11 10 2 0 4 -4 4 -10z m3833 -5 c-3 -9 -8 -14 -10 -11 -3 3 -2 9 2
15 9 16 15 13 8 -4z m-4696 -29 c-4 -9 -11 -16 -17 -16 -7 0 -8 6 -1 19 6 10
9 21 7 23 -1 3 2 2 7 -3 5 -4 7 -15 4 -23z m27 13 c-3 -6 0 -15 7 -20 11 -7
10 -9 -3 -9 -18 0 -24 20 -11 33 10 11 15 8 7 -4z m46 7 c0 -3 -4 -8 -10 -11
-5 -3 -10 -1 -10 4 0 6 5 11 10 11 6 0 10 -2 10 -4z m88 -16 c10 -17 10 -20
-3 -20 -8 0 -19 9 -25 20 -8 15 -8 20 2 20 7 0 19 -9 26 -20z m200 11 c10 -6
4 -12 -20 -24 -18 -9 -29 -17 -25 -17 5 0 1 -7 -7 -16 -9 -8 -20 -12 -26 -9
-5 3 -10 -1 -10 -10 0 -10 5 -13 12 -9 7 5 8 3 4 -5 -5 -7 -15 -10 -23 -6 -10
3 -22 -3 -30 -15 -8 -11 -18 -18 -22 -16 -4 3 -14 -6 -21 -19 -7 -14 -21 -25
-30 -25 -9 0 -26 -10 -38 -22 -33 -36 -82 -68 -82 -53 0 5 197 175 204 175 6
0 53 40 74 63 19 19 22 20 40 8z m1262 -1 c0 -5 -4 -10 -10 -10 -5 0 -10 5
-10 10 0 6 5 10 10 10 6 0 10 -4 10 -10z m-680 -10 c0 -5 -4 -10 -9 -10 -5 0
-17 -7 -25 -16 -9 -8 -22 -14 -29 -11 -7 2 0 10 16 17 15 7 27 17 27 22 0 4 5
8 10 8 6 0 10 -4 10 -10z m620 0 c0 -5 -6 -10 -13 -10 -8 0 -22 -9 -32 -20
-10 -11 -23 -20 -29 -20 -6 0 -3 7 6 14 10 7 15 16 11 19 -3 4 -1 7 6 7 7 0 9
5 6 10 -4 6 5 10 19 10 14 0 26 -4 26 -10z m-1445 -10 c3 -5 -1 -10 -9 -10 -8
0 -18 5 -21 10 -3 6 1 10 9 10 8 0 18 -4 21 -10z m575 0 c0 -5 -2 -10 -4 -10
-3 0 -8 5 -11 10 -3 6 -1 10 4 10 6 0 11 -4 11 -10z m70 0 c0 -5 -5 -10 -11
-10 -5 0 -7 5 -4 10 3 6 8 10 11 10 2 0 4 -4 4 -10z m700 6 c0 -2 -7 -9 -15
-16 -13 -11 -14 -10 -9 4 5 14 24 23 24 12z m-1390 -26 c0 -5 -4 -10 -10 -10
-5 0 -10 5 -10 10 0 6 5 10 10 10 6 0 10 -4 10 -10z m150 -10 c-13 -11 -26
-18 -28 -15 -6 6 28 34 42 35 5 0 -1 -9 -14 -20z m1580 10 c-19 -13 -30 -13
-30 0 0 6 10 10 23 10 18 0 19 -2 7 -10z m-234 -13 c-10 -7 -28 -22 -39 -34
-33 -37 -41 -26 -10 12 16 20 37 35 48 34 19 0 19 0 1 -12z m-910 -11 c9 -9
10 -17 4 -21 -5 -3 -10 -1 -10 5 0 7 -10 10 -27 6 -16 -3 -50 -8 -78 -11 -27
-3 -52 -9 -55 -13 -3 -4 -18 -14 -35 -22 -16 -8 -36 -21 -43 -27 -7 -7 -21
-17 -30 -22 -9 -5 -14 -13 -10 -17 4 -4 13 -2 20 3 20 15 50 24 43 13 -3 -6
-12 -10 -18 -10 -7 0 -32 -18 -57 -40 -25 -22 -49 -40 -55 -39 -5 0 5 13 24
29 19 16 31 33 27 37 -4 4 -36 -23 -72 -60 -36 -37 -66 -67 -68 -67 -27 0 181
207 239 238 13 6 54 14 90 16 37 3 69 7 73 10 9 10 23 7 38 -8z m-616 -5 c0
-5 -12 -11 -27 -14 -26 -5 -26 -4 -8 9 22 16 35 18 35 5z m800 -6 c-14 -17
-30 -20 -30 -6 0 5 8 12 18 14 9 3 19 5 21 6 2 0 -2 -6 -9 -14z m628 -22 c-6
-8 -14 -11 -17 -7 -3 4 -1 9 6 11 7 2 9 12 6 21 -4 14 -3 15 5 2 8 -10 8 -18
0 -27z m1577 27 c3 -5 1 -10 -4 -10 -6 0 -11 5 -11 10 0 6 2 10 4 10 3 0 8 -4
11 -10z m-2865 -5 c0 -11 -45 -45 -59 -45 -10 1 -5 7 12 16 15 8 27 19 27 24
0 6 5 10 10 10 6 0 10 -2 10 -5z m1453 -10 c-3 -9 -8 -14 -10 -11 -3 3 -2 9 2
15 9 16 15 13 8 -4z m-723 -10 c-33 -19 -46 -19 -30 0 7 8 22 15 34 15 20 -1
20 -2 -4 -15z m875 5 c3 -5 2 -10 -4 -10 -5 0 -13 5 -16 10 -3 6 -2 10 4 10 5
0 13 -4 16 -10z m-1455 -15 c-7 -9 -15 -13 -17 -11 -7 7 7 26 19 26 6 0 6 -6
-2 -15z m285 -5 c-10 -11 -21 -17 -24 -14 -3 3 3 12 13 20 28 20 32 17 11 -6z
m1140 0 c-3 -5 -11 -10 -16 -10 -6 0 -7 5 -4 10 3 6 11 10 16 10 6 0 7 -4 4
-10z m-1202 -30 c-18 -17 -36 -30 -40 -30 -9 0 -46 -28 -107 -81 -42 -37 -129
-101 -111 -83 12 13 130 119 173 157 18 15 38 25 44 21 7 -4 8 -3 4 4 -4 6 5
18 21 26 44 24 51 18 16 -14z m-263 10 c0 -5 -5 -10 -11 -10 -5 0 -7 5 -4 10
3 6 8 10 11 10 2 0 4 -4 4 -10z m-214 -36 c-28 -27 -45 -32 -26 -9 7 8 9 15 4
15 -4 0 1 6 11 14 31 22 40 6 11 -20z m684 26 c0 -5 -9 -14 -20 -20 -19 -10
-20 -10 -8 9 13 22 28 28 28 11z m967 -3 c0 -8 -6 -14 -14 -14 -14 0 -17 10
-6 20 10 11 20 8 20 -6z m-1487 -11 c0 -2 -7 -6 -15 -10 -8 -3 -15 -1 -15 4 0
6 7 10 15 10 8 0 15 -2 15 -4z m1334 -36 c-15 -22 -29 -40 -31 -40 -2 0 6 18
18 40 13 22 26 40 31 40 5 0 -4 -18 -18 -40z m189 20 c-6 -24 -23 -37 -23 -18
0 12 18 38 26 38 1 0 0 -9 -3 -20z m-1198 -10 c-3 -5 -11 -10 -16 -10 -6 0 -7
5 -4 10 3 6 11 10 16 10 6 0 7 -4 4 -10z m131 -2 c4 -6 3 -8 -3 -5 -6 4 -16 0
-23 -8 -11 -13 -10 -14 3 -10 8 4 18 1 23 -6 5 -8 2 -11 -8 -7 -8 4 -29 -2
-47 -13 -17 -10 -31 -14 -31 -9 0 6 -5 10 -11 10 -5 0 -7 -5 -4 -10 3 -6 0
-13 -9 -16 -8 -3 -12 -13 -9 -22 4 -15 3 -15 -6 -2 -9 13 -14 12 -33 -9 -18
-19 -19 -22 -5 -18 23 9 22 5 -10 -24 -16 -13 -22 -17 -15 -9 28 32 7 41 -26
10 -25 -24 -194 -129 -172 -108 11 11 167 134 190 151 182 127 182 128 196
105z m132 -2 c-7 -8 -15 -14 -18 -13 -3 1 -15 -2 -27 -7 -23 -7 -32 -26 -13
-26 6 0 10 -5 10 -12 0 -9 -3 -9 -12 0 -7 7 -20 12 -29 12 -9 0 -19 7 -23 15
-3 8 -1 15 3 15 5 0 11 -5 13 -10 2 -6 19 1 38 14 39 28 80 36 58 12z m856
-52 c-13 -17 -24 -34 -24 -38 0 -4 -5 -12 -10 -19 -6 -7 -26 -36 -46 -66 -34
-51 -115 -141 -127 -141 -6 0 181 282 193 290 3 3 10 14 14 25 l8 20 8 -20 c5
-14 0 -29 -16 -51z m-1154 39 c0 -5 -15 -17 -33 -28 -50 -31 -55 -30 -17 3 35
31 50 38 50 25z m370 3 c0 -3 -4 -8 -10 -11 -5 -3 -10 -1 -10 4 0 6 5 11 10
11 6 0 10 -2 10 -4z m-910 -16 c0 -5 -2 -10 -4 -10 -3 0 -8 5 -11 10 -3 6 -1
10 4 10 6 0 11 -4 11 -10z m870 0 c-8 -5 -24 -9 -35 -9 -16 1 -16 2 5 9 35 11
48 11 30 0z m-839 -19 c-10 -10 -21 -25 -23 -32 -3 -8 -9 -11 -13 -7 -4 4 0
14 9 23 9 9 16 21 16 26 0 5 7 9 15 9 12 0 11 -4 -4 -19z m109 -16 c-7 -9 -15
-13 -17 -11 -7 7 7 26 19 26 6 0 6 -6 -2 -15z m1393 -25 c-9 -17 -27 -41 -38
-53 -22 -25 -21 -24 19 41 30 48 47 58 19 12z m-833 5 c0 -8 -5 -15 -11 -15
-6 0 -16 -6 -23 -12 -22 -21 -58 -51 -100 -83 -22 -17 -51 -40 -65 -53 -13
-12 -26 -20 -29 -18 -6 7 54 66 67 66 6 0 11 4 11 10 0 8 32 35 125 105 24 19
25 19 25 0z m-650 1 c0 -2 -8 -10 -17 -17 -16 -13 -17 -12 -4 4 13 16 21 21
21 13z m175 -6 c6 -10 -45 -64 -53 -55 -3 2 7 14 22 26 21 17 25 24 14 30 -9
6 -9 9 -1 9 6 0 15 -4 18 -10z m195 -13 c-151 -141 -173 -160 -130 -112 25 27
61 63 80 80 19 16 41 36 48 43 7 6 16 12 20 12 4 0 -5 -10 -18 -23z m490 13
c0 -5 -2 -10 -4 -10 -3 0 -8 5 -11 10 -3 6 -1 10 4 10 6 0 11 -4 11 -10z
m-810 -9 c0 -6 -4 -13 -10 -16 -5 -3 -10 1 -10 9 0 9 5 16 10 16 6 0 10 -4 10
-9z m210 5 c0 -3 -4 -8 -10 -11 -5 -3 -10 -1 -10 4 0 6 5 11 10 11 6 0 10 -2
10 -4z m1468 -38 c-14 -24 -30 -39 -36 -33 -2 2 6 17 19 34 26 35 37 35 17 -1z
m2382 -9 c12 -23 20 -43 18 -45 -3 -2 -14 17 -26 41 -27 56 -20 60 8 4z
m-3474 -7 c-17 -16 -18 -16 -5 5 7 12 15 20 18 17 3 -2 -3 -12 -13 -22z m-586
-5 c0 -2 -10 -12 -22 -23 l-23 -19 19 23 c18 21 26 27 26 19z m30 -30 c-20
-17 -43 -43 -53 -56 -9 -14 -19 -22 -23 -18 -3 3 1 13 9 21 9 9 24 26 34 39
16 21 50 46 63 47 3 0 -11 -15 -30 -33z m1565 13 c-3 -5 -11 -10 -16 -10 -6 0
-7 5 -4 10 3 6 11 10 16 10 6 0 7 -4 4 -10z m-1505 -4 c0 -3 -4 -8 -10 -11 -5
-3 -10 -1 -10 4 0 6 5 11 10 11 6 0 10 -2 10 -4z m100 0 c0 -2 -8 -10 -17 -17
-16 -13 -17 -12 -4 4 13 16 21 21 21 13z m620 -10 c0 -3 -4 -8 -10 -11 -5 -3
-10 -1 -10 4 0 6 5 11 10 11 6 0 10 -2 10 -4z m560 -4 c0 -4 -10 -13 -22 -21
-23 -14 -23 -14 -4 8 20 22 26 25 26 13z m-795 -12 c-3 -5 -11 -10 -16 -10 -6
0 -7 5 -4 10 3 6 11 10 16 10 6 0 7 -4 4 -10z m-205 -4 c0 -3 -4 -8 -10 -11
-5 -3 -10 -1 -10 4 0 6 5 11 10 11 6 0 10 -2 10 -4z m150 -66 c-8 -5 -19 -10
-25 -10 -5 0 -3 5 5 10 8 5 20 10 25 10 6 0 3 -5 -5 -10z m1460 6 c0 -3 -4 -8
-10 -11 -5 -3 -10 -1 -10 4 0 6 5 11 10 11 6 0 10 -2 10 -4z m-1847 -21 c-3
-9 -8 -14 -10 -11 -3 3 -2 9 2 15 9 16 15 13 8 -4z m179 -2 c-6 -9 -18 -17
-28 -18 -11 -2 -28 -6 -39 -10 l-20 -8 20 16 c11 9 28 17 37 17 9 0 20 5 23
10 11 17 17 11 7 -7z m458 13 c0 -2 -8 -10 -17 -17 -16 -13 -17 -12 -4 4 13
16 21 21 21 13z m680 -26 c-6 -11 -13 -20 -16 -20 -2 0 0 9 6 20 6 11 13 20
16 20 2 0 0 -9 -6 -20z m-833 4 c-3 -3 -12 -4 -19 -1 -8 3 -5 6 6 6 11 1 17
-2 13 -5z m1340 0 c-3 -3 -12 -4 -19 -1 -8 3 -5 6 6 6 11 1 17 -2 13 -5z
m-1797 -24 c-19 -12 -30 -12 -30 -1 0 10 31 20 40 14 2 -2 -2 -8 -10 -13z
m-140 0 c0 -5 -7 -10 -16 -10 -8 0 -12 5 -9 10 3 6 10 10 16 10 5 0 9 -4 9
-10z m-350 -55 c0 -5 -5 -3 -10 5 -5 8 -10 20 -10 25 0 6 5 3 10 -5 5 -8 10
-19 10 -25z m985 25 c-3 -5 -14 -10 -23 -9 -14 0 -13 2 3 9 27 11 27 11 20 0z
m99 2 c3 -5 -1 -9 -9 -9 -8 0 -12 4 -9 9 3 4 7 8 9 8 2 0 6 -4 9 -8z m1159 -6
c3 -8 -2 -16 -14 -19 -16 -4 -17 -2 -8 14 12 23 15 23 22 5z m94 -8 c-7 -51
-46 -105 -150 -211 -60 -62 -85 -84 -56 -49 123 143 150 179 175 229 28 57 37
66 31 31z m-1322 -28 c3 -5 1 -10 -4 -10 -6 0 -11 5 -11 10 0 6 2 10 4 10 3 0
8 -4 11 -10z m1390 0 c3 -5 1 -10 -4 -10 -6 0 -11 5 -11 10 0 6 2 10 4 10 3 0
8 -4 11 -10z m-2015 -10 c0 -5 -5 -10 -11 -10 -5 0 -7 5 -4 10 3 6 8 10 11 10
2 0 4 -4 4 -10z m1810 1 c0 -20 -13 -41 -25 -41 -8 0 -16 -8 -18 -17 -4 -14
-5 -12 -6 5 0 12 3 22 8 22 5 0 13 9 16 20 6 20 25 28 25 11z m1800 -39 c0 -5
-7 -17 -15 -28 -14 -18 -14 -17 -4 9 12 27 19 34 19 19z m-1419 -63 c-18 -14
-57 -34 -89 -43 -69 -21 -170 -28 -175 -12 -2 6 -23 -5 -48 -24 l-44 -35 30
35 c64 74 119 130 128 130 4 0 -8 -20 -27 -44 -20 -23 -36 -45 -36 -48 0 -3
26 -1 58 4 79 11 201 57 215 80 11 17 12 17 16 1 2 -10 -9 -28 -28 -44z m484
-14 c28 -9 81 -19 118 -22 64 -6 68 -8 63 -27 -3 -12 -6 -25 -6 -31 0 -5 -7 0
-15 12 -10 15 -30 23 -67 28 -75 10 -151 41 -179 72 l-24 27 30 -21 c17 -11
53 -28 80 -38z m-932 19 c-4 -10 -9 -12 -15 -6 -12 12 -1 35 12 27 5 -3 6 -13
3 -21z m1801 -75 c-53 -100 -173 -269 -271 -381 -301 -344 -754 -594 -1207
-668 -145 -24 -136 -24 -136 -5 0 8 3 15 8 15 28 0 245 43 309 60 245 69 434
152 613 272 187 126 334 255 458 402 75 90 202 276 202 296 0 5 4 10 8 10 5 0
17 18 27 40 10 22 20 38 22 36 3 -3 -12 -37 -33 -77z m-2054 -14 c-7 -8 -18
-15 -24 -15 -6 0 -2 7 8 15 25 19 32 19 16 0z m450 -15 c0 -16 7 -20 33 -21
17 0 79 -2 137 -3 58 -2 242 -7 410 -11 168 -4 312 -11 320 -16 8 -5 -196 -9
-459 -9 l-473 0 6 23 c3 12 6 30 6 40 0 9 5 17 10 17 6 0 10 -9 10 -20z
m-2620 -96 c0 -2 -4 -4 -9 -4 -8 0 -14 12 -36 75 -4 11 5 0 19 -24 14 -23 26
-45 26 -47z m2120 61 l0 -25 -459 0 c-384 0 -460 2 -464 14 -3 8 -4 16 -1 18
5 6 372 2 677 -7 213 -6 237 -5 237 9 0 9 2 16 5 16 3 0 5 -11 5 -25z m1889
-37 c-38 -55 -81 -92 -155 -135 -67 -40 -108 -78 -202 -191 -46 -56 -156 -148
-217 -182 -66 -37 -48 -14 43 53 90 67 196 172 228 226 10 17 21 31 25 31 3 0
28 17 55 38 27 21 63 44 79 52 17 8 59 44 95 81 36 37 67 65 69 63 2 -1 -7
-18 -20 -36z m761 -23 c-16 -19 -30 -19 -30 -1 0 8 8 16 18 18 24 6 27 1 12
-17z m-4497 -100 c26 -9 47 -20 47 -24 0 -4 15 -15 33 -25 17 -11 57 -40 87
-65 30 -25 57 -46 61 -46 9 0 24 -15 24 -24 0 -3 16 -27 36 -51 20 -25 42 -56
48 -70 10 -21 8 -20 -11 5 -42 55 -122 138 -188 192 -56 46 -81 59 -179 90
-112 36 -117 36 -197 26 -98 -12 -125 -28 -166 -94 -39 -63 -47 -57 -14 10 20
39 37 57 74 76 44 24 54 25 172 21 85 -2 140 -9 173 -21z m4528 -1 c28 -14 49
-28 46 -30 -3 -3 -15 0 -27 6 -12 7 -33 10 -46 7 -13 -2 -21 -1 -19 4 3 4 -16
14 -42 22 l-48 15 43 1 c28 1 60 -8 93 -25z m-4674 -10 c-3 -3 -12 -4 -19 -1
-8 3 -5 6 6 6 11 1 17 -2 13 -5z m-87 -23 c-25 -10 -65 -36 -89 -57 -30 -26
-40 -31 -32 -16 22 41 102 91 146 91 11 0 0 -8 -25 -18z m4728 -14 c7 -6 18
-19 24 -30 8 -15 -1 -12 -36 13 -25 18 -46 35 -46 37 0 7 44 -9 58 -20z m-958
-114 c-47 -49 -86 -90 -89 -93 -2 -3 2 6 8 18 15 28 144 162 156 162 5 0 -29
-39 -75 -87z m-3688 25 c-6 -6 -16 -7 -22 -3 -9 6 -9 9 1 16 17 10 34 0 21
-13z m4473 12 c3 -5 12 -7 20 -3 8 3 15 0 15 -6 0 -6 -16 -11 -35 -11 -33 0
-43 8 -28 23 9 10 21 9 28 -3z m-4550 -110 c3 -5 -3 -10 -14 -10 -12 0 -21 5
-21 10 0 6 6 10 14 10 8 0 18 -4 21 -10z m4810 -10 c-3 -5 -12 -10 -18 -10 -7
0 -6 4 3 10 19 12 23 12 15 0z m-4896 -26 c2 -2 -7 -4 -22 -4 -14 0 -29 5 -32
10 -6 10 42 4 54 -6z m4309 -22 c-19 -21 -49 -59 -67 -85 -36 -53 -51 -63 -24
-16 18 32 111 139 120 139 3 0 -10 -17 -29 -38z m-1435 -17 c-20 -25 -39 -45
-41 -45 -6 0 15 27 47 63 39 43 36 31 -6 -18z m-1993 -75 c25 -25 101 -84 155
-120 28 -19 56 -40 63 -46 6 -7 21 -16 32 -19 11 -3 20 -11 20 -16 0 -5 5 -9
11 -9 6 0 30 -14 55 -31 79 -54 346 -177 484 -223 125 -41 264 -75 383 -92
l48 -6 -3 48 -3 48 -70 12 c-98 17 -254 59 -355 95 -106 39 -311 141 -429 214
-96 59 -138 98 -55 50 154 -88 256 -140 352 -179 117 -49 288 -100 306 -92 6
2 3 5 -7 5 -9 1 -25 5 -35 11 -9 5 -45 19 -80 31 -34 12 -61 23 -59 25 2 2 43
-9 90 -25 48 -17 135 -39 195 -51 59 -11 117 -23 130 -26 22 -5 23 -2 22 48
-1 29 -1 77 -1 106 l1 52 265 0 c224 0 265 -2 265 -14 0 -9 -9 -14 -22 -14
-13 1 -125 1 -250 0 -211 -2 -227 -3 -233 -21 -14 -44 23 -69 43 -28 6 12 11
16 11 10 1 -9 23 -13 74 -14 39 0 106 -5 147 -10 111 -14 160 -15 160 -4 0 6
4 3 9 -5 15 -23 2 -32 -48 -29 -25 1 -112 2 -193 1 l-148 -2 0 -31 c0 -17 -4
-28 -10 -24 -5 3 -10 17 -10 30 0 12 -6 25 -13 28 -11 4 -15 -25 -20 -146 -9
-194 -21 -248 -79 -344 l-19 -33 -57 39 c-83 56 -226 125 -333 162 -88 29
-107 32 -280 38 l-186 6 -84 43 c-75 37 -286 199 -275 210 7 7 50 -20 81 -50
66 -65 160 -124 272 -170 16 -6 107 -14 203 -18 146 -7 190 -12 263 -34 103
-31 269 -107 345 -159 l53 -36 24 52 c29 64 55 146 46 151 -3 2 -33 7 -66 11
-228 26 -569 152 -819 301 -126 75 -312 222 -401 316 -49 51 -24 36 35 -22z
m1720 50 c-6 -11 -13 -20 -16 -20 -2 0 0 9 6 20 6 11 13 20 16 20 2 0 0 -9 -6
-20z m110 -47 c-35 -38 -78 -92 -98 -120 -19 -29 -39 -53 -43 -53 -14 0 83
133 138 188 74 75 76 64 3 -15z m1827 21 c-3 -3 -12 -4 -19 -1 -8 3 -5 6 6 6
11 1 17 -2 13 -5z m-4546 -22 c-7 -2 -18 1 -23 6 -8 8 -4 9 13 5 13 -4 18 -8
10 -11z m2573 -7 c-9 -14 -19 -23 -22 -20 -5 4 26 45 35 45 2 0 -4 -11 -13
-25z m2310 4 c-11 -13 -25 -14 -70 -8 -86 12 -83 24 6 24 71 0 77 -2 64 -16z
m-4449 -9 c3 -5 2 -10 -4 -10 -5 0 -13 5 -16 10 -3 6 -2 10 4 10 5 0 13 -4 16
-10z m2385 -4 c0 -2 -8 -10 -17 -17 -16 -13 -17 -12 -4 4 13 16 21 21 21 13z
m1565 -6 c-3 -5 -12 -10 -18 -10 -7 0 -6 4 3 10 19 12 23 12 15 0z m-955 -8
c0 -4 -10 -13 -22 -21 -23 -14 -23 -14 -4 8 20 22 26 25 26 13z m-890 -22 c0
-5 -5 -10 -11 -10 -5 0 -7 5 -4 10 3 6 8 10 11 10 2 0 4 -4 4 -10z m243 -15
c-3 -9 -8 -14 -10 -11 -3 3 -2 9 2 15 9 16 15 13 8 -4z m1420 0 c-3 -9 -8 -14
-10 -11 -3 3 -2 9 2 15 9 16 15 13 8 -4z m117 6 c0 -5 -7 -12 -16 -15 -14 -5
-15 -4 -4 9 14 17 20 19 20 6z m601 -9 c-6 -10 -32 -36 -58 -57 -26 -21 -54
-45 -60 -53 -7 -8 -25 -16 -40 -17 -16 -1 -39 -5 -53 -10 -34 -10 -24 -2 29
25 23 12 40 17 36 11 -3 -6 -1 -11 4 -11 6 0 11 4 11 9 0 8 129 121 138 121 1
0 -2 -8 -7 -18z m-280 -19 c13 -15 11 -16 -16 -8 -51 14 -94 14 -106 -1 -6 -8
-17 -14 -23 -14 -6 1 0 10 13 20 30 26 112 28 132 3z m-362 -6 c-68 -52 -112
-97 -157 -160 -30 -43 -56 -76 -59 -73 -10 10 48 104 89 143 49 47 121 102
127 97 2 -2 2 -5 0 -7z m117 -24 c-10 -10 -19 5 -10 18 6 11 8 11 12 0 2 -7 1
-15 -2 -18z m-1126 -7 c0 -2 -7 -6 -15 -10 -8 -3 -15 -1 -15 4 0 6 7 10 15 10
8 0 15 -2 15 -4z m1625 -16 c-3 -5 -16 -15 -28 -21 -19 -9 -19 -8 3 10 28 23
34 26 25 11z m-4555 -14 c0 -3 -4 -8 -10 -11 -5 -3 -10 -1 -10 4 0 6 5 11 10
11 6 0 10 -2 10 -4z m244 -63 c8 -20 3 -16 -35 24 l-34 37 32 -25 c17 -13 34
-30 37 -36z m2533 21 c-3 -3 -12 -4 -19 -1 -8 3 -5 6 6 6 11 1 17 -2 13 -5z
m-2873 -13 c3 -4 -6 -6 -19 -3 -14 2 -25 6 -25 8 0 8 39 4 44 -5z m2813 -7
c-16 -9 -31 -13 -34 -10 -3 3 5 10 18 15 37 15 47 12 16 -5z m1353 5 c0 -11
-27 -12 -34 -1 -2 4 4 9 15 9 10 1 19 -2 19 -8z m-4117 -6 c-7 -2 -19 -2 -25
0 -7 3 -2 5 12 5 14 0 19 -2 13 -5z m3898 -83 c-38 -45 -73 -95 -76 -111 -5
-21 -10 -28 -17 -21 -20 20 2 58 79 135 42 42 79 77 80 77 2 0 -28 -36 -66
-80z m285 54 c18 -14 18 -14 -6 -3 -31 14 -36 19 -24 19 6 0 19 -7 30 -16z
m147 -24 c10 -10 8 -11 -8 -5 -11 4 -28 7 -37 7 -10 0 -18 3 -18 8 0 12 50 5
63 -10z m-3824 -19 c32 -44 24 -61 -9 -21 -16 19 -30 38 -30 43 0 16 20 5 39
-22z m1868 -23 c-3 -8 -6 -5 -6 6 -1 11 2 17 5 13 3 -3 4 -12 1 -19z m1327
-11 c-7 -19 -121 -121 -189 -169 -116 -82 -206 -106 -395 -107 -91 0 -136 -5
-214 -25 -109 -28 -303 -117 -401 -184 l-60 -41 -17 22 c-10 12 -18 26 -18 31
0 6 6 1 14 -9 13 -19 17 -17 84 27 99 66 198 114 320 155 101 34 117 36 287
44 186 7 228 15 306 55 59 29 192 129 243 183 40 41 51 46 40 18z m-3149 -48
c11 -17 -1 -21 -15 -4 -8 9 -8 15 -2 15 6 0 14 -5 17 -11z m8 -56 c-4 -11 -3
-14 6 -9 8 5 39 -19 89 -70 42 -42 103 -97 136 -121 71 -52 256 -153 282 -153
14 0 15 -3 6 -12 -9 -9 -23 -9 -63 0 -75 18 -241 12 -355 -13 -27 -6 -28 -5
-11 8 20 17 102 33 220 43 42 4 77 10 77 14 0 14 -53 30 -103 30 -91 0 -225
-27 -294 -59 -45 -22 -83 -50 -126 -96 -46 -47 -66 -62 -76 -55 -12 7 -7 17
25 52 22 24 44 44 48 45 9 2 22 22 50 78 32 64 45 108 57 187 7 46 14 85 15
86 1 2 19 -15 40 -37 38 -43 114 -107 114 -97 0 3 -34 40 -75 82 -67 68 -93
114 -65 114 5 0 6 -7 3 -17z m3123 -28 c-22 -51 -79 -108 -177 -175 -48 -33
-90 -60 -94 -60 -4 0 34 32 84 70 50 39 114 100 143 135 28 36 53 65 55 65 2
0 -3 -16 -11 -35z m85 -4 c-6 -10 -55 -65 -110 -122 -56 -57 -101 -105 -101
-105 0 -1 17 -5 38 -9 62 -11 174 -71 217 -116 41 -43 34 -44 -20 -3 -43 32
-174 96 -188 91 -7 -2 -18 2 -25 10 -7 7 -21 13 -30 13 -15 0 -15 -2 -2 -11
11 -8 5 -9 -25 -5 -22 3 -53 6 -68 6 -44 0 -23 17 30 24 39 5 54 13 78 42 46
55 197 204 207 204 5 0 4 -8 -1 -19z m-376 -241 c-3 -5 -12 -10 -18 -10 -7 0
-6 4 3 10 19 12 23 12 15 0z m-3155 -43 c0 -2 -10 -12 -22 -23 l-23 -19 19 23
c18 21 26 27 26 19z m3248 -30 c28 -6 52 -15 52 -20 0 -5 -12 -6 -27 -3 -23 5
-174 23 -218 27 -5 0 -1 4 10 9 23 11 104 5 183 -13z m-273 -15 c-3 -3 -11 0
-18 7 -9 10 -8 11 6 5 10 -3 15 -9 12 -12z m-1979 -41 c65 -22 157 -54 204
-71 47 -18 105 -39 130 -47 46 -16 84 -41 45 -30 -23 7 -395 139 -470 167 -88
33 -32 21 91 -19z m-1215 -16 c26 -14 28 -18 18 -38 -23 -45 -31 -49 -43 -25
-15 29 -38 33 -70 12 -32 -20 -38 -51 -6 -32 16 10 26 8 58 -10 22 -12 50 -22
63 -22 13 0 31 -5 39 -10 11 -7 -3 -9 -46 -9 -94 2 -111 -17 -44 -51 21 -11
49 -20 60 -20 12 0 18 -4 15 -10 -20 -32 -133 13 -165 64 -24 40 -26 76 -5
116 26 51 71 63 126 35z m168 -1 c2 -2 2 -7 -2 -10 -3 -3 -16 2 -29 11 l-23
17 25 -7 c14 -4 27 -9 29 -11z m1036 -41 c77 -25 196 -65 264 -90 l124 -45 28
22 c16 11 29 18 29 14 0 -11 -45 -43 -60 -44 -8 0 -131 38 -272 85 -227 75
-266 85 -335 87 -42 0 -78 -3 -80 -8 -2 -5 -47 -8 -100 -7 -53 2 -93 0 -90 -4
7 -7 -46 -43 -63 -43 -25 0 38 51 79 64 57 19 97 22 231 18 93 -3 121 -8 245
-49z m1950 47 c-3 -5 -15 -10 -25 -10 -11 0 -32 -5 -47 -11 -59 -24 -70 -28
-156 -55 -48 -15 -90 -25 -93 -22 -5 6 290 107 314 108 7 0 10 -4 7 -10z m203
3 c-10 -2 -26 -2 -35 0 -10 3 -2 5 17 5 19 0 27 -2 18 -5z m-1620 -33 c-7 -10
-14 -17 -17 -15 -4 4 18 35 25 35 2 0 -1 -9 -8 -20z m2627 0 c17 -19 17 -19
-9 -7 -14 7 -26 15 -26 20 0 13 17 7 35 -13z m-952 -32 c-17 -18 -35 -42 -41
-53 -11 -19 -11 -19 -12 -1 0 10 15 33 34 52 43 43 60 45 19 2z m-1163 -9 c0
-6 -4 -7 -10 -4 -5 3 -10 11 -10 16 0 6 5 7 10 4 6 -3 10 -11 10 -16z m1052 8
c-6 -7 -15 -33 -19 -57 l-7 -45 -7 45 c-5 35 -3 48 9 58 21 16 37 16 24 -1z
m-2829 -18 c15 0 10 -5 -17 -15 -53 -19 -88 -25 -81 -13 4 5 13 9 21 9 8 0 17
7 21 16 3 8 12 13 20 10 8 -3 24 -6 36 -7z m3508 -62 c13 -9 33 -24 44 -33 18
-14 17 -14 -10 0 -17 8 -50 33 -75 56 -25 23 -31 31 -14 18 16 -12 41 -31 55
-41z m129 33 c13 -8 13 -10 -2 -10 -9 0 -20 5 -23 10 -8 13 5 13 25 0z m-1691
-45 c0 -5 -4 -3 -9 5 -5 8 -9 22 -9 30 0 16 17 -16 18 -35z m1971 32 c0 -22
-29 -55 -62 -71 -44 -23 -59 -20 -20 4 38 23 41 37 10 49 -22 8 -21 9 12 19
48 14 60 14 60 -1z m-4280 -1 c0 -3 -4 -8 -10 -11 -5 -3 -10 -1 -10 4 0 6 5
11 10 11 6 0 10 -2 10 -4z m858 -50 c-2 -30 -6 -51 -11 -47 -7 7 2 101 10 101
2 0 2 -24 1 -54z m3210 47 c-10 -2 -26 -2 -35 0 -10 3 -2 5 17 5 19 0 27 -2
18 -5z m102 -3 c0 -5 -7 -7 -15 -4 -8 4 -15 8 -15 10 0 2 7 4 15 4 8 0 15 -4
15 -10z m-3660 -47 c15 -8 17 -11 5 -7 -11 4 -32 9 -47 12 -16 2 -28 9 -28 14
0 11 34 2 70 -19z m1179 -75 c121 -54 200 -106 253 -167 42 -49 53 -54 69 -33
13 16 12 16 -6 3 -11 -7 13 19 54 58 53 50 98 83 155 110 121 59 148 68 181
61 29 -5 28 -6 -20 -19 -27 -8 -54 -18 -59 -22 -6 -5 -16 -9 -23 -9 -21 0
-181 -111 -247 -172 l-59 -54 -85 83 c-47 46 -92 83 -100 83 -8 0 -34 14 -59
30 -24 17 -48 30 -53 30 -13 0 -140 59 -140 65 0 12 29 2 139 -47z m781 4 c0
-4 -30 -21 -66 -36 -103 -45 -208 -119 -304 -214 -49 -48 -85 -81 -81 -74 15
27 177 185 219 214 116 80 232 135 232 110z m850 -68 c16 -17 48 -39 70 -49
42 -19 55 -41 18 -30 -81 25 -148 85 -148 132 1 17 2 17 15 -2 9 -11 29 -34
45 -51z m-2525 -24 c3 -5 1 -10 -4 -10 -6 0 -11 5 -11 10 0 6 2 10 4 10 3 0 8
-4 11 -10z"/>
<path d="M5093 7774 c-7 -7 -13 -16 -13 -19 0 -3 32 -5 70 -5 67 0 70 1 58 19
-9 15 -23 20 -58 19 -25 0 -51 -6 -57 -14z"/>
<path d="M5001 7654 c0 -11 3 -14 6 -6 3 7 2 16 -1 19 -3 4 -6 -2 -5 -13z"/>
<path d="M4885 7395 c3 -66 5 -150 5 -187 0 -56 3 -68 16 -68 15 0 16 15 11
143 -3 92 -10 158 -21 187 -16 45 -16 44 -11 -75z"/>
<path d="M5337 7323 c-4 -3 -7 -31 -7 -60 l0 -55 -32 3 c-18 1 -102 1 -185 0
l-153 -1 0 -32 0 -33 200 -2 200 -1 0 94 c0 86 -5 106 -23 87z m-17 -138 c0
-9 -9 -15 -22 -14 -17 1 -19 2 -5 6 9 2 17 9 17 14 0 5 2 9 5 9 3 0 5 -7 5
-15z"/>
<path d="M5229 7292 c-2 -24 -2 -24 -6 -4 -4 20 -10 23 -51 21 -26 -1 -53 -4
-59 -7 -23 -8 -14 -18 19 -20 18 -2 34 -5 37 -8 3 -3 -15 -3 -39 -1 -30 2 -44
7 -42 16 1 7 -2 10 -8 6 -6 -3 -8 -11 -5 -16 4 -5 0 -10 -7 -11 -7 -1 28 -5
77 -8 50 -4 100 -10 111 -14 18 -7 22 -3 26 23 5 37 0 45 -29 48 -19 2 -23 -3
-24 -25z"/>
<path d="M4970 7280 c0 -35 19 -32 37 5 10 23 9 25 -13 25 -20 0 -24 -5 -24
-30z"/>
<path d="M4753 7020 c-13 -5 -23 -12 -23 -15 0 -10 27 -5 46 10 21 16 11 18
-23 5z"/>
<path d="M4695 6990 c3 -5 14 -10 23 -10 15 0 15 2 2 10 -20 13 -33 13 -25 0z"/>
<path d="M4550 6945 c-8 -9 -8 -15 -2 -15 12 0 26 19 19 26 -2 2 -10 -2 -17
-11z"/>
<path d="M4695 6905 c-35 -36 -31 -45 5 -10 17 16 30 30 30 32 0 8 -11 1 -35
-22z"/>
<path d="M4316 6882 c-4 -3 8 -19 25 -34 40 -37 45 -32 9 9 -16 17 -31 29 -34
25z"/>
<path d="M5130 6870 c0 -5 5 -10 11 -10 5 0 7 5 4 10 -3 6 -8 10 -11 10 -2 0
-4 -4 -4 -10z"/>
<path d="M4605 6834 c-27 -18 -45 -34 -39 -34 10 0 94 58 94 66 0 6 -2 5 -55
-32z"/>
<path d="M4275 6810 c10 -11 20 -20 23 -20 3 0 -3 9 -13 20 -10 11 -20 20 -23
20 -3 0 3 -9 13 -20z"/>
<path d="M4666 6795 c-11 -8 -17 -17 -14 -20 2 -3 13 4 23 15 21 23 18 25 -9
5z"/>
<path d="M4755 6790 c-3 -5 -2 -10 4 -10 5 0 13 5 16 10 3 6 2 10 -4 10 -5 0
-13 -4 -16 -10z"/>
<path d="M4860 6785 c-7 -9 -10 -18 -6 -22 3 -3 6 -1 6 6 0 7 7 11 14 8 10 -4
13 -1 9 9 -6 18 -8 18 -23 -1z"/>
<path d="M5093 6788 c-9 -16 -15 -48 -8 -48 3 0 18 11 32 25 29 26 25 47 -4
24 -11 -9 -14 -10 -9 -1 4 6 5 12 2 12 -3 0 -8 -6 -13 -12z"/>
<path d="M4410 6781 c0 -5 7 -12 16 -15 14 -5 15 -4 4 9 -14 17 -20 19 -20 6z"/>
<path d="M4220 6771 c0 -10 19 -25 25 -20 1 2 -3 10 -11 17 -8 7 -14 8 -14 3z"/>
<path d="M4501 6759 c-13 -11 -29 -18 -36 -16 -6 3 -11 -4 -11 -14 0 -25 2
-25 47 16 41 37 41 48 0 14z"/>
<path d="M5137 6759 c-4 -16 -3 -18 9 -8 16 13 19 29 5 29 -5 0 -11 -9 -14
-21z"/>
<path d="M4600 6766 c0 -2 7 -7 16 -10 8 -3 12 -2 9 4 -6 10 -25 14 -25 6z"/>
<path d="M5002 6750 c13 -20 28 -27 28 -12 0 4 -9 13 -20 20 -19 12 -20 11 -8
-8z"/>
<path d="M4705 6750 c-3 -5 -2 -10 4 -10 5 0 13 5 16 10 3 6 2 10 -4 10 -5 0
-13 -4 -16 -10z"/>
<path d="M4197 6733 c-4 -3 -7 -11 -7 -17 0 -6 5 -5 12 2 6 6 9 14 7 17 -3 3
-9 2 -12 -2z"/>
<path d="M4350 6736 c0 -2 7 -7 16 -10 8 -3 12 -2 9 4 -6 10 -25 14 -25 6z"/>
<path d="M4855 6730 c-3 -5 -1 -10 4 -10 6 0 11 5 11 10 0 6 -2 10 -4 10 -3 0
-8 -4 -11 -10z"/>
<path d="M4930 6721 c0 -6 4 -13 10 -16 6 -3 7 1 4 9 -7 18 -14 21 -14 7z"/>
<path d="M4970 6726 c0 -4 7 -14 15 -22 8 -9 15 -11 15 -6 0 5 -7 15 -15 22
-8 7 -15 9 -15 6z"/>
<path d="M4551 6662 c24 -26 46 -47 48 -45 6 4 -72 91 -83 92 -5 1 11 -21 35
-47z"/>
<path d="M4670 6706 c0 -2 8 -10 18 -17 15 -13 16 -12 3 4 -13 16 -21 21 -21
13z"/>
<path d="M4410 6690 c-13 -8 -12 -10 3 -10 9 0 17 5 17 10 0 12 -1 12 -20 0z"/>
<path d="M4960 6690 c0 -5 5 -10 11 -10 5 0 7 5 4 10 -3 6 -8 10 -11 10 -2 0
-4 -4 -4 -10z"/>
<path d="M4375 6660 c3 -5 8 -10 11 -10 2 0 4 5 4 10 0 6 -5 10 -11 10 -5 0
-7 -4 -4 -10z"/>
<path d="M4720 6655 c7 -8 17 -15 22 -15 6 0 5 7 -2 15 -7 8 -17 15 -22 15 -6
0 -5 -7 2 -15z"/>
<path d="M4094 6644 c-18 -14 -18 -15 4 -4 12 6 22 13 22 15 0 8 -5 6 -26 -11z"/>
<path d="M4770 6645 c-8 -9 -8 -15 -2 -15 12 0 26 19 19 26 -2 2 -10 -2 -17
-11z"/>
<path d="M4820 6635 c-16 -17 -19 -25 -9 -25 14 0 44 38 36 46 -2 2 -14 -7
-27 -21z"/>
<path d="M4905 6651 c-3 -5 -2 -12 3 -15 5 -3 9 1 9 9 0 17 -3 19 -12 6z"/>
<path d="M4985 6649 c-3 -4 1 -9 9 -12 8 -3 17 0 19 7 5 13 -21 18 -28 5z"/>
<path d="M4410 6630 c0 -5 5 -10 11 -10 5 0 7 5 4 10 -3 6 -8 10 -11 10 -2 0
-4 -4 -4 -10z"/>
<path d="M3941 6586 c-24 -25 -54 -47 -68 -51 -13 -3 -21 -10 -18 -15 13 -21
89 31 118 79 10 17 17 31 15 31 -2 0 -23 -20 -47 -44z"/>
<path d="M4936 6609 c-16 -13 -33 -18 -46 -14 -25 8 -26 -1 -1 -15 16 -8 25
-4 51 20 37 35 35 40 -4 9z"/>
<path d="M5025 6620 c-10 -16 18 -43 40 -38 14 3 13 6 -8 26 -17 17 -27 20
-32 12z"/>
<path d="M4840 6610 c0 -5 5 -10 11 -10 5 0 7 5 4 10 -3 6 -8 10 -11 10 -2 0
-4 -4 -4 -10z"/>
<path d="M4621 6583 c8 -10 26 -30 41 -46 16 -15 28 -32 28 -37 0 -6 5 -10 11
-10 16 0 8 13 -39 64 -41 45 -68 63 -41 29z"/>
<path d="M4486 6545 c20 -25 41 -45 46 -45 5 0 -10 20 -33 45 -23 25 -44 45
-46 45 -3 0 12 -20 33 -45z"/>
<path d="M4250 6555 c-11 -13 -10 -14 4 -9 9 3 16 10 16 15 0 13 -6 11 -20 -6z"/>
<path d="M5090 6551 c13 -26 25 -32 44 -25 22 9 20 24 -3 24 -11 0 -23 5 -26
10 -12 19 -26 11 -15 -9z"/>
<path d="M3770 6550 c-9 -6 -10 -10 -3 -10 6 0 15 5 18 10 8 12 4 12 -15 0z"/>
<path d="M3974 6527 c-18 -20 -18 -21 -1 -7 15 11 20 11 27 1 4 -7 10 -9 13
-5 3 5 -1 14 -8 21 -10 9 -17 7 -31 -10z"/>
<path d="M4977 6543 c-13 -13 -7 -21 13 -16 11 3 17 9 14 14 -6 11 -18 12 -27
2z"/>
<path d="M5293 6506 c-42 -21 -55 -36 -30 -36 6 0 23 9 37 20 14 11 31 20 38
20 6 0 12 5 12 10 0 13 -7 12 -57 -14z"/>
<path d="M5087 6514 c-8 -8 1 -24 14 -24 5 0 9 7 9 15 0 15 -12 20 -23 9z"/>
<path d="M5165 6500 c-10 -11 -22 -17 -26 -14 -5 3 -9 1 -9 -5 0 -5 5 -13 10
-16 6 -3 10 -2 10 3 0 5 11 14 25 20 14 6 25 16 25 22 0 16 -15 12 -35 -10z"/>
<path d="M3924 6488 l-19 -23 23 19 c12 11 22 21 22 23 0 8 -8 2 -26 -19z"/>
<path d="M5390 6500 c0 -5 10 -10 23 -10 18 0 19 2 7 10 -19 13 -30 13 -30 0z"/>
<path d="M5056 6491 c-3 -5 1 -11 9 -15 8 -3 15 -1 15 4 0 13 -18 22 -24 11z"/>
<path d="M5296 6461 c-26 -23 -54 -41 -62 -41 -22 0 -17 -14 16 -40 16 -14 29
-31 30 -37 0 -7 7 -13 15 -13 8 0 15 -7 15 -15 0 -8 7 -15 16 -15 13 0 14 -3
4 -15 -9 -11 -16 -11 -29 -3 -14 8 -24 6 -46 -8 -19 -13 -23 -19 -14 -23 8 -3
14 -16 13 -28 -1 -19 2 -21 17 -12 23 12 24 25 4 33 -8 3 -15 10 -15 16 0 16
28 11 40 -7 8 -13 13 -14 16 -6 6 15 32 -7 50 -41 6 -14 18 -20 33 -18 17 1
22 -2 18 -13 -4 -8 -2 -17 3 -20 4 -3 10 1 13 7 3 10 8 10 17 2 8 -8 9 -17 2
-30 -11 -20 -25 -55 -26 -66 -1 -3 -4 -10 -8 -14 -5 -4 -8 -16 -8 -26 0 -10
-4 -18 -10 -18 -5 0 -10 -7 -10 -16 0 -9 -20 -50 -45 -91 -25 -40 -45 -77 -45
-81 0 -4 -9 -24 -20 -45 -11 -20 -17 -37 -14 -37 3 0 -3 -16 -15 -35 -11 -19
-16 -35 -11 -35 5 0 19 18 30 40 20 38 38 56 26 25 -3 -8 -1 -15 5 -15 6 0 8
11 4 29 -4 21 -1 35 12 50 19 23 39 29 27 9 -4 -7 -5 -11 -1 -8 3 3 5 8 4 12
-1 4 7 14 18 23 20 16 20 16 -1 10 -26 -7 -28 18 -2 34 10 6 18 7 18 2 0 -5
-6 -12 -12 -14 -9 -4 -8 -6 2 -6 14 -1 106 107 103 120 -1 4 7 15 17 24 11 10
20 23 20 29 0 6 20 34 45 61 30 34 44 45 45 33 0 -10 -4 -18 -9 -18 -4 0 -27
-27 -50 -60 -23 -33 -37 -60 -32 -60 6 0 11 5 11 10 0 6 7 10 15 10 8 0 15 5
15 10 0 10 74 82 91 88 19 7 8 -26 -16 -48 -14 -13 -25 -32 -25 -42 0 -15 5
-17 28 -12 37 10 40 16 36 95 -2 38 1 71 6 74 4 3 9 -163 9 -368 1 -204 2
-381 4 -392 2 -20 -5 -20 -468 -23 -454 -3 -577 1 -603 17 -10 6 -13 88 -13
349 -1 506 5 542 93 581 102 45 97 42 54 37 -53 -7 -126 -45 -150 -79 -20 -28
-21 -43 -24 -470 -1 -243 2 -448 6 -455 9 -13 177 -15 955 -13 l187 1 0 441
c0 488 0 485 -65 535 -34 26 -166 64 -222 64 -18 0 -33 3 -33 8 0 4 200 6 445
4 442 -3 445 -3 445 18 0 24 37 23 -490 25 -229 1 -408 -3 -411 -8 -3 -5 -3
-23 0 -40 6 -30 9 -32 44 -29 44 4 139 -22 185 -50 18 -11 39 -33 47 -49 20
-37 11 -37 -20 -1 -42 50 -239 96 -260 61 -4 -6 -14 -8 -22 -5 -8 3 -11 1 -8
-4 10 -16 -11 -11 -25 5 -10 12 -10 19 -1 28 9 9 14 9 21 -3 5 -8 12 -11 17
-7 4 5 1 13 -7 18 -11 8 -12 12 -2 16 6 2 12 12 12 21 -1 12 -9 8 -29 -15 -29
-34 -61 -44 -61 -18 0 8 -4 15 -10 15 -17 0 -11 30 8 37 9 4 25 17 36 30 12
16 24 22 36 18 10 -3 22 0 26 6 5 8 3 9 -6 4 -7 -4 -15 -2 -20 4 -5 9 -21 0
-54 -28z m214 -319 c0 -4 -9 -13 -20 -20 -22 -13 -23 -12 -14 12 6 16 34 23
34 8z m12 -49 c-27 -26 -55 -59 -62 -73 -25 -50 -74 -120 -83 -120 -5 0 1 17
14 38 56 92 81 146 70 150 -18 6 -12 24 7 18 9 -3 35 5 57 18 22 13 41 22 43
21 2 -2 -19 -25 -46 -52z"/>
<path d="M5017 6466 c-24 -18 -21 -26 8 -26 15 0 25 6 25 14 0 22 -13 26 -33
12z"/>
<path d="M3879 6453 c-13 -16 -12 -17 4 -4 9 7 17 15 17 17 0 8 -8 3 -21 -13z"/>
<path d="M5169 6459 c-5 -3 2 -11 15 -19 21 -11 28 -11 41 0 8 7 15 16 15 20
0 9 -57 8 -71 -1z"/>
<path d="M4910 6437 c0 -7 -7 -27 -15 -44 -13 -26 -23 -31 -82 -42 -82 -15
-150 -47 -176 -83 -21 -29 -20 20 -18 -585 l1 -263 48 0 c48 0 72 12 72 37 0
7 -7 13 -16 13 -8 0 -12 5 -9 10 3 6 15 10 26 10 10 0 19 3 19 8 0 15 183 76
223 74 9 0 17 3 17 9 0 5 11 9 25 9 14 0 25 5 25 10 0 6 -7 10 -15 10 -19 0
-19 16 0 24 16 6 40 -28 30 -44 -3 -6 -1 -10 4 -10 6 0 11 4 11 9 0 6 21 10
48 9 26 0 55 3 66 7 11 5 21 3 25 -4 13 -20 29 11 20 39 -4 14 -7 19 -8 13 -1
-7 -8 -13 -17 -13 -8 0 -12 5 -8 11 4 8 0 8 -15 0 -11 -7 -21 -18 -21 -27 0
-12 -4 -13 -21 -4 -11 6 -33 9 -48 5 -23 -5 -33 -1 -48 19 l-20 25 -14 -27
c-7 -15 -13 -28 -14 -29 0 -1 -13 -5 -29 -9 -26 -6 -27 -5 -17 15 15 28 3 27
-28 -3 -15 -13 -38 -31 -53 -41 -38 -24 -37 -1 2 32 17 13 30 31 30 39 0 7 9
18 20 24 11 6 20 16 20 22 0 7 -12 0 -27 -14 -16 -15 -34 -28 -42 -30 -21 -5
-51 -36 -51 -53 0 -8 -9 -19 -20 -25 -15 -8 -24 -6 -40 10 -17 17 -18 20 -3
20 11 0 4 11 -23 35 -21 19 -34 34 -27 35 6 0 19 3 27 6 11 4 15 2 11 -7 -3
-8 -1 -20 4 -28 8 -12 12 -12 26 2 15 15 15 17 1 17 -9 0 -16 5 -16 11 0 7 12
9 33 6 17 -3 26 -3 20 0 -19 7 -16 23 5 23 14 1 13 4 -7 21 -13 11 -29 18 -35
16 -42 -16 -58 -18 -52 -8 4 6 2 11 -5 11 -10 0 -10 3 0 13 11 10 14 10 18 0
5 -14 33 -18 33 -5 0 4 -14 16 -31 26 -18 11 -27 21 -21 25 7 4 8 12 2 21 -14
22 -12 30 5 24 8 -4 13 -10 10 -14 -3 -4 2 -10 10 -14 9 -3 15 0 15 8 0 8 6
17 13 20 6 2 1 4 -13 3 -18 -1 -25 3 -25 16 0 10 -5 21 -10 25 -17 12 -36 62
-24 62 6 0 9 9 6 19 -4 17 -2 18 19 11 28 -11 30 -3 8 29 -15 21 -15 24 6 44
21 19 21 21 6 27 -16 5 -16 7 3 24 20 18 21 18 52 -48 17 -36 35 -66 40 -66 5
0 9 -7 9 -15 0 -9 23 -49 50 -91 28 -41 50 -80 50 -85 0 -5 5 -9 11 -9 7 0 8
7 4 18 -4 9 -10 25 -12 35 -3 9 -12 17 -21 17 -8 0 -12 3 -9 7 4 3 3 11 -2 17
-25 33 -91 168 -86 176 4 6 1 9 -5 8 -7 -2 -18 13 -25 32 -11 30 -10 38 3 53
18 20 60 25 45 5 -5 -7 -7 -24 -4 -38 6 -23 8 -22 34 23 15 26 35 47 43 47 8
0 18 8 21 18 4 9 12 22 19 27 7 6 15 24 17 41 6 40 23 71 45 83 9 5 13 13 8
18 -5 4 -11 2 -13 -4 -3 -7 -10 -13 -16 -13 -7 0 -24 -7 -39 -14 -27 -14 -28
-14 -34 10 -3 13 -11 21 -17 17 -7 -4 -8 0 -2 13 12 30 11 57 -2 61 -7 3 -13
-2 -13 -10z m-111 -733 c-6 -8 -23 -14 -38 -14 l-26 0 24 19 c28 22 59 18 40
-5z m-69 -94 c0 -5 -2 -10 -4 -10 -3 0 -8 5 -11 10 -3 6 -1 10 4 10 6 0 11 -4
11 -10z m36 -45 c27 -25 29 -40 3 -30 -12 5 -43 55 -34 55 2 0 16 -11 31 -25z"/>
<path d="M4962 6420 c-12 -10 -18 -21 -14 -24 10 -6 48 31 41 38 -2 2 -14 -4
-27 -14z"/>
<path d="M5305 6430 c-11 -18 5 -31 26 -20 11 6 17 15 14 21 -8 12 -32 12 -40
-1z"/>
<path d="M3814 6419 c-9 -15 12 -17 30 -4 17 13 17 14 -4 12 -12 -1 -24 -5
-26 -8z"/>
<path d="M3944 6405 c-4 -8 -12 -15 -19 -15 -8 0 -17 -4 -20 -10 -3 -6 5 -10
18 -10 18 0 26 6 29 25 6 28 1 33 -8 10z"/>
<path d="M5090 6395 c0 -13 4 -14 20 -5 11 6 20 13 20 15 0 3 -9 5 -20 5 -11
0 -20 -7 -20 -15z"/>
<path d="M5194 6369 c29 -22 36 -52 10 -42 -10 4 -17 -2 -21 -16 -4 -16 -11
-20 -24 -16 -30 10 -189 -160 -196 -209 -2 -10 -11 -25 -21 -33 -9 -8 -11 -11
-3 -7 11 5 13 1 9 -19 -7 -38 4 -26 67 66 57 85 138 177 155 177 6 0 10 5 10
10 0 14 38 12 43 -2 3 -9 10 -8 26 6 23 21 21 36 -3 17 -8 -7 -21 -9 -27 -5
-9 5 -7 11 6 21 18 12 17 14 -10 43 -16 16 -33 30 -38 30 -5 0 2 -9 17 -21z
m-204 -259 c0 -5 -5 -10 -11 -10 -5 0 -7 5 -4 10 3 6 8 10 11 10 2 0 4 -4 4
-10z"/>
<path d="M5157 6357 c-3 -7 3 -13 14 -14 12 -1 16 3 12 13 -6 18 -19 18 -26 1z"/>
<path d="M3897 6336 c-15 -14 -31 -26 -37 -26 -5 0 -10 -4 -10 -8 0 -10 -89
-72 -137 -96 -18 -9 -55 -21 -83 -27 -27 -6 -50 -14 -50 -17 0 -4 -15 -13 -32
-21 -42 -18 -59 -31 -53 -41 3 -4 33 7 67 26 35 18 71 34 81 34 9 0 17 5 17
10 0 6 9 10 20 10 12 0 40 10 63 21 65 33 197 143 185 154 -3 3 -17 -5 -31
-19z"/>
<path d="M4003 6353 c-7 -3 -13 -10 -13 -18 0 -7 -7 -18 -15 -25 -9 -7 -15
-20 -13 -29 1 -9 -1 -21 -5 -28 -4 -6 -1 -18 8 -25 8 -7 31 -28 51 -46 26 -24
41 -31 59 -26 12 3 26 1 29 -5 4 -6 12 -11 18 -11 7 0 6 6 -2 15 -16 19 0 19
26 0 14 -10 15 -14 5 -15 -12 0 -12 -3 -3 -12 10 -10 15 -10 21 1 13 21 54 -5
46 -30 -4 -10 -2 -19 3 -19 6 0 15 -15 21 -32 9 -26 9 -30 -1 -20 -6 6 -16 12
-22 12 -5 0 -6 -3 -3 -7 4 -3 1 -13 -6 -21 -10 -13 -9 -14 10 -8 12 4 24 2 28
-4 9 -15 -15 -42 -31 -36 -8 3 -11 0 -8 -8 4 -11 10 -11 30 -2 24 11 24 12 24
163 l0 153 -40 29 c-48 34 -180 67 -217 54z m87 -172 c0 -5 -6 -11 -13 -14 -8
-3 -14 1 -14 9 0 8 6 14 14 14 7 0 13 -4 13 -9z"/>
<path d="M5096 6322 c-3 -5 1 -9 9 -9 8 0 12 4 9 9 -3 4 -7 8 -9 8 -2 0 -6 -4
-9 -8z"/>
<path d="M5005 6249 c-4 -6 -5 -12 -2 -15 2 -3 7 2 10 11 7 17 1 20 -8 4z"/>
<path d="M5187 6234 c-4 -4 3 -15 15 -25 28 -25 32 -24 12 6 -18 28 -18 28
-27 19z"/>
<path d="M5291 6211 c-8 -6 -11 -17 -6 -31 5 -16 10 -19 18 -11 6 6 16 11 21
11 6 0 5 -5 -2 -12 -14 -14 -16 -48 -4 -48 5 0 14 11 20 25 10 21 8 28 -11 49
-15 16 -28 22 -36 17z"/>
<path d="M3947 6189 c-4 -16 -3 -18 9 -8 7 6 11 15 8 20 -8 13 -11 11 -17 -12z"/>
<path d="M4973 6198 c-20 -26 -26 -41 -15 -34 12 7 36 46 29 46 -3 0 -9 -6
-14 -12z"/>
<path d="M5140 6184 l-25 -24 23 0 c14 0 21 4 17 11 -4 6 2 13 14 16 11 3 18
9 15 14 -8 13 -17 10 -44 -17z"/>
<path d="M3907 6173 c-12 -12 -7 -22 8 -17 8 4 15 10 15 15 0 11 -14 12 -23 2z"/>
<path d="M5220 6166 c0 -8 -6 -17 -12 -20 -7 -3 -2 -3 12 0 14 4 22 3 18 -1
-6 -7 -1 -15 30 -50 6 -7 12 -21 12 -29 0 -9 4 -16 9 -16 15 0 19 -50 7 -88
-10 -35 -37 -71 -53 -73 -5 -1 -7 -6 -5 -12 2 -5 -3 -14 -10 -18 -9 -6 -6 -9
10 -9 12 0 22 -4 22 -10 0 -5 -4 -10 -10 -10 -5 0 -7 -6 -4 -13 3 -8 -2 -19
-10 -26 -7 -6 -12 -20 -9 -30 6 -25 -66 -71 -116 -73 -22 -1 -46 -5 -53 -10
-8 -6 14 -7 57 -4 78 5 101 9 112 19 7 8 28 61 45 117 6 19 28 70 49 112 35
70 54 128 29 88 -5 -8 -11 -12 -13 -10 -3 5 -58 111 -81 157 -12 25 -36 31
-36 9z"/>
<path d="M3808 6115 c-32 -19 -58 -32 -58 -30 0 3 -10 -1 -22 -9 -23 -14 -78
-19 -78 -7 0 4 5 12 12 19 9 9 9 12 0 12 -7 0 -12 -4 -12 -10 0 -5 -9 -10 -20
-10 -11 0 -20 5 -20 10 0 6 -7 10 -16 10 -12 0 -8 -8 14 -30 18 -16 35 -30 39
-30 5 0 32 -18 61 -40 28 -22 52 -35 52 -30 0 5 -16 20 -35 32 -41 27 -42 31
-12 45 126 60 196 103 167 102 -8 0 -41 -15 -72 -34z"/>
<path d="M3981 6139 c-13 -5 -21 -12 -18 -15 3 -3 18 1 34 10 31 17 21 20 -16
5z"/>
<path d="M4820 6140 c0 -5 5 -10 10 -10 6 0 10 5 10 10 0 6 -4 10 -10 10 -5 0
-10 -4 -10 -10z"/>
<path d="M5084 6122 c-8 -13 -13 -26 -10 -29 2 -3 11 4 18 16 7 12 18 21 25
21 7 0 13 4 13 8 0 18 -31 7 -46 -16z"/>
<path d="M5336 6124 c-11 -28 -7 -35 14 -24 11 6 17 16 14 25 -8 20 -20 19
-28 -1z"/>
<path d="M4080 6119 c0 -5 5 -7 10 -4 6 3 10 8 10 11 0 2 -4 4 -10 4 -5 0 -10
-5 -10 -11z"/>
<path d="M5160 6110 c-33 -34 -62 -80 -46 -74 9 3 16 12 16 20 0 8 6 11 15 8
10 -4 15 0 15 11 0 9 4 14 9 10 13 -7 20 7 12 25 -5 14 -8 14 -21 0z"/>
<path d="M3695 6110 c3 -5 11 -10 16 -10 6 0 7 5 4 10 -3 6 -11 10 -16 10 -6
0 -7 -4 -4 -10z"/>
<path d="M3873 6078 c-34 -23 -60 -44 -58 -47 3 -2 30 14 62 35 72 48 80 54
67 54 -5 0 -38 -19 -71 -42z"/>
<path d="M4132 6091 c4 -13 18 -16 19 -4 0 4 -5 9 -11 12 -7 2 -11 -2 -8 -8z"/>
<path d="M4905 6089 c-4 -6 -5 -12 -2 -15 2 -3 7 2 10 11 7 17 1 20 -8 4z"/>
<path d="M5346 6084 c-9 -8 -16 -20 -16 -26 0 -6 3 -8 7 -5 3 4 12 2 20 -4 10
-9 13 -5 13 20 0 35 -3 37 -24 15z"/>
<path d="M3540 6076 c0 -8 5 -18 10 -21 6 -3 10 1 10 9 0 8 -4 18 -10 21 -5 3
-10 -1 -10 -9z"/>
<path d="M5045 6070 c-3 -5 -1 -10 4 -10 6 0 11 5 11 10 0 6 -2 10 -4 10 -3 0
-8 -4 -11 -10z"/>
<path d="M5236 6071 c-3 -5 1 -11 9 -14 9 -4 12 -1 8 9 -6 16 -10 17 -17 5z"/>
<path d="M4175 6060 c-3 -5 -1 -10 4 -10 6 0 11 5 11 10 0 6 -2 10 -4 10 -3 0
-8 -4 -11 -10z"/>
<path d="M3490 6020 c-30 -26 -31 -29 -9 -19 14 6 30 19 37 30 16 26 12 24
-28 -11z"/>
<path d="M3566 6042 c-2 -4 4 -13 15 -20 22 -14 25 -7 5 14 -8 8 -17 11 -20 6z"/>
<path d="M3910 6020 c0 -5 5 -10 10 -10 6 0 10 5 10 10 0 6 -4 10 -10 10 -5 0
-10 -4 -10 -10z"/>
<path d="M4760 6025 c0 -3 7 -14 16 -23 15 -14 16 -14 13 3 -4 17 -29 35 -29
20z"/>
<path d="M5201 6016 c-7 -9 -3 -11 17 -10 38 2 42 3 42 12 0 12 -49 11 -59 -2z"/>
<path d="M3512 5985 c-19 -19 -30 -35 -25 -35 14 1 65 50 61 60 -2 6 -18 -5
-36 -25z"/>
<path d="M4110 6000 c-9 -6 -10 -10 -3 -10 6 0 15 5 18 10 8 12 4 12 -15 0z"/>
<path d="M5125 6000 c4 -6 11 -8 16 -5 14 9 11 15 -7 15 -8 0 -12 -5 -9 -10z"/>
<path d="M5575 6000 c-3 -5 -1 -10 4 -10 6 0 11 5 11 10 0 6 -2 10 -4 10 -3 0
-8 -4 -11 -10z"/>
<path d="M3528 5940 c-46 -48 -53 -60 -39 -66 9 -4 19 -7 23 -6 4 1 12 -7 18
-18 13 -24 26 -26 34 -4 4 11 2 15 -8 11 -8 -3 -22 3 -31 13 -20 22 -11 45 37
91 17 16 29 31 26 34 -2 3 -29 -22 -60 -55z"/>
<path d="M4971 5987 c-10 -13 -11 -20 -2 -30 6 -8 8 -17 4 -21 -4 -4 1 -4 10
0 15 5 17 3 11 -20 -3 -14 -2 -26 3 -26 12 0 33 -59 26 -76 -3 -8 -1 -14 5
-14 15 0 24 32 12 44 -5 5 -10 20 -10 31 0 12 -3 25 -7 29 -4 3 -8 16 -10 28
-2 12 -7 25 -12 28 -5 3 -10 14 -12 24 -4 18 -5 18 -18 3z"/>
<path d="M5240 5981 c-5 -11 -10 -26 -10 -33 0 -7 -9 -19 -20 -26 -11 -7 -20
-16 -20 -22 0 -5 15 1 33 13 26 17 33 29 34 54 1 38 -2 41 -17 14z"/>
<path d="M5628 5983 c-14 -9 -31 -27 -37 -40 -11 -24 -10 -24 11 -9 34 24 57
21 30 -4 -12 -12 -22 -25 -22 -31 0 -6 -4 -8 -8 -5 -5 3 -8 -5 -8 -17 1 -13
-5 -22 -14 -22 -8 0 -25 -11 -36 -25 -21 -24 -21 -25 -3 -41 18 -15 18 -17 2
-30 -14 -12 -16 -12 -8 0 6 11 3 13 -13 9 -14 -4 -20 -2 -15 5 4 7 0 8 -11 4
-10 -4 -20 -7 -23 -7 -3 0 0 -6 6 -14 9 -10 7 -19 -9 -37 -10 -13 -19 -20 -20
-16 0 10 -50 -47 -50 -57 0 -7 41 12 50 23 3 3 37 27 75 52 85 56 135 99 135
116 0 19 -9 16 -47 -17 -18 -16 -39 -30 -44 -30 -15 0 63 69 79 70 8 0 12 21
12 70 0 39 -1 70 -2 70 -2 0 -15 -8 -30 -17z m-58 -147 c0 -2 -8 -10 -17 -17
-16 -13 -17 -12 -4 4 13 16 21 21 21 13z"/>
<path d="M3840 5986 c0 -3 9 -10 20 -16 11 -6 20 -8 20 -6 0 3 -9 10 -20 16
-11 6 -20 8 -20 6z"/>
<path d="M5169 5974 c-12 -14 -11 -16 5 -13 11 2 21 10 24 17 5 17 -13 15 -29
-4z"/>
<path d="M3416 5960 c-18 -19 -18 -20 5 -44 21 -22 24 -23 36 -8 15 21 17 35
3 27 -6 -4 -18 -4 -27 -1 -14 6 -14 9 2 26 23 25 6 25 -19 0z"/>
<path d="M5541 5971 c-8 -6 -9 -11 -3 -15 6 -3 14 -1 17 5 9 14 2 20 -14 10z"/>
<path d="M3597 5963 c-4 -3 2 -13 14 -21 26 -18 35 -10 11 11 -10 10 -22 14
-25 10z"/>
<path d="M3975 5960 c-3 -6 1 -7 9 -4 18 7 21 14 7 14 -6 0 -13 -4 -16 -10z"/>
<path d="M4055 5960 c4 -6 11 -8 16 -5 14 9 11 15 -7 15 -8 0 -12 -5 -9 -10z"/>
<path d="M3770 5954 c0 -9 53 -54 63 -54 4 0 7 5 7 10 0 6 -5 10 -11 10 -6 0
-8 7 -5 16 4 12 1 14 -14 9 -11 -4 -20 -2 -20 4 0 6 -4 11 -10 11 -5 0 -10 -3
-10 -6z"/>
<path d="M4810 5950 c0 -5 5 -10 11 -10 5 0 7 5 4 10 -3 6 -8 10 -11 10 -2 0
-4 -4 -4 -10z"/>
<path d="M3680 5940 c0 -5 5 -10 10 -10 6 0 10 5 10 10 0 6 -4 10 -10 10 -5 0
-10 -4 -10 -10z"/>
<path d="M5135 5940 c-3 -5 1 -10 9 -10 9 0 16 5 16 10 0 6 -4 10 -9 10 -6 0
-13 -4 -16 -10z"/>
<path d="M5511 5946 c3 -4 -16 -29 -43 -58 -26 -28 -48 -59 -47 -67 0 -14 1
-14 6 -1 8 19 51 62 86 84 31 21 34 31 10 40 -10 4 -15 5 -12 2z"/>
<path d="M4159 5924 c-12 -14 -11 -16 5 -13 11 2 21 10 24 17 5 17 -13 15 -29
-4z"/>
<path d="M4243 5926 c7 -17 -32 -76 -70 -106 -21 -17 -22 -18 -3 -6 14 9 34
20 45 25 12 5 26 15 32 22 14 18 15 79 1 79 -5 0 -8 -6 -5 -14z"/>
<path d="M3554 5908 l-19 -23 25 20 c14 11 27 21 29 22 2 2 0 3 -6 3 -5 0 -18
-10 -29 -22z"/>
<path d="M3952 5914 c14 -14 21 -15 30 -6 8 8 9 12 1 12 -6 0 -20 3 -30 6 -17
7 -17 6 -1 -12z"/>
<path d="M4835 5914 c11 -8 19 -17 18 -19 -7 -13 -1 -18 6 -6 10 16 -9 41 -31
41 -8 -1 -5 -6 7 -16z"/>
<path d="M3635 5910 c3 -5 11 -10 16 -10 5 0 22 -11 36 -25 15 -13 29 -22 32
-19 7 6 -61 63 -77 64 -7 0 -10 -4 -7 -10z"/>
<path d="M3730 5914 c0 -11 29 -34 34 -26 2 4 -4 13 -15 20 -10 7 -19 10 -19
6z"/>
<path d="M4798 5890 c9 -16 21 -30 25 -30 5 0 -1 14 -13 30 -27 39 -34 39 -12
0z"/>
<path d="M3856 5891 c-8 -12 22 -36 32 -26 4 4 1 10 -6 12 -6 3 -10 9 -6 14 3
5 1 9 -5 9 -5 0 -12 -4 -15 -9z"/>
<path d="M3930 5892 c0 -6 9 -12 20 -15 11 -3 20 -3 20 -1 0 2 -9 8 -20 14
-11 6 -20 7 -20 2z"/>
<path d="M4098 5888 c-7 -7 -39 -26 -70 -41 -50 -24 -60 -26 -80 -15 -13 7
-27 19 -31 26 -5 7 -12 10 -18 7 -12 -8 -12 -25 1 -25 6 0 25 -10 43 -22 18
-13 34 -24 37 -26 2 -1 -8 -14 -24 -28 -15 -14 -25 -28 -22 -31 3 -3 25 14 48
39 43 46 128 108 147 108 5 0 13 5 16 10 9 14 -31 12 -47 -2z"/>
<path d="M5530 5875 c-13 -14 -29 -24 -36 -21 -7 3 -10 -2 -7 -14 3 -12 -3
-23 -16 -32 -22 -13 -28 -28 -12 -28 5 0 22 18 38 40 15 22 33 40 38 40 12 0
39 40 27 40 -5 0 -19 -11 -32 -25z"/>
<path d="M3627 5879 c7 -7 15 -10 18 -7 3 3 -2 9 -12 12 -14 6 -15 5 -6 -5z"/>
<path d="M4145 5859 c-52 -40 -57 -46 -17 -23 29 16 73 55 61 53 -2 0 -22 -14
-44 -30z"/>
<path d="M5130 5880 c-9 -6 -10 -10 -3 -10 6 0 15 5 18 10 8 12 4 12 -15 0z"/>
<path d="M3770 5870 c0 -5 7 -10 15 -10 8 0 15 5 15 10 0 6 -7 10 -15 10 -8 0
-15 -4 -15 -10z"/>
<path d="M3400 5850 c0 -5 5 -10 10 -10 6 0 10 5 10 10 0 6 -4 10 -10 10 -5 0
-10 -4 -10 -10z"/>
<path d="M3710 5832 c-14 -9 -27 -19 -30 -22 -3 -3 -16 -11 -30 -18 -22 -10
-23 -11 -4 -9 12 1 32 -7 45 -18 13 -11 18 -13 12 -5 -21 24 -15 40 22 56 20
8 33 19 30 24 -8 13 -15 12 -45 -8z"/>
<path d="M4202 5805 c-23 -25 -42 -49 -42 -52 0 -4 5 -2 12 5 7 7 20 12 30 12
10 0 18 6 18 14 0 8 10 22 22 30 15 11 19 19 12 26 -7 7 -24 -5 -52 -35z"/>
<path d="M4820 5845 c0 -6 11 -20 38 -50 6 -7 12 -18 12 -24 0 -6 5 -11 10
-11 11 0 -8 40 -33 73 -14 17 -27 23 -27 12z"/>
<path d="M4885 5840 c-3 -6 1 -13 10 -16 9 -4 14 -13 11 -20 -3 -8 0 -11 10
-7 10 4 12 0 8 -11 -3 -9 -1 -16 6 -16 6 0 8 -4 5 -10 -3 -5 -1 -10 4 -10 18
0 12 35 -9 58 -11 12 -20 26 -20 32 0 13 -17 13 -25 0z"/>
<path d="M5150 5839 c0 -6 -7 -8 -17 -4 -13 4 -15 3 -7 -5 6 -6 18 -8 27 -4
18 7 23 24 7 24 -5 0 -10 -5 -10 -11z"/>
<path d="M3570 5824 c0 -9 7 -14 18 -12 9 1 23 -1 30 -6 7 -4 16 -6 19 -3 4 5
-49 37 -62 37 -3 0 -5 -7 -5 -16z"/>
<path d="M3417 5813 c-4 -6 0 -13 8 -17 8 -3 17 0 21 6 4 6 3 8 -4 4 -5 -3
-12 -1 -14 6 -3 8 -6 9 -11 1z"/>
<path d="M3778 5804 c12 -8 28 -13 35 -11 7 3 5 6 -5 6 -10 1 -18 6 -18 11 0
6 -8 10 -17 10 -14 0 -13 -3 5 -16z"/>
<path d="M3855 5810 c3 -5 8 -10 11 -10 2 0 4 5 4 10 0 6 -5 10 -11 10 -5 0
-7 -4 -4 -10z"/>
<path d="M5196 5805 c-10 -8 -22 -12 -26 -10 -5 3 -10 -2 -14 -10 -3 -8 -1
-15 4 -15 21 0 58 20 63 34 8 20 -2 20 -27 1z"/>
<path d="M3485 5799 c-12 -19 5 -23 22 -6 16 16 16 17 1 17 -9 0 -20 -5 -23
-11z"/>
<path d="M5078 5803 c-10 -2 -18 -9 -18 -14 0 -6 8 -5 20 1 11 6 20 13 20 15
0 3 -1 4 -2 4 -2 -1 -11 -3 -20 -6z"/>
<path d="M3540 5785 c-19 -22 -8 -25 13 -3 9 10 13 18 8 18 -5 0 -14 -7 -21
-15z"/>
<path d="M4240 5789 c0 -5 5 -7 10 -4 6 3 10 8 10 11 0 2 -4 4 -10 4 -5 0 -10
-5 -10 -11z"/>
<path d="M5369 5757 c-63 -102 -72 -120 -60 -116 7 3 28 33 46 68 19 35 39 67
45 71 7 4 8 10 3 13 -5 3 -20 -13 -34 -36z"/>
<path d="M3357 5776 c-17 -13 -15 -15 20 -37 21 -12 50 -33 65 -47 16 -15 33
-22 43 -18 12 4 15 1 11 -12 -4 -11 2 -23 14 -32 11 -8 20 -20 20 -27 0 -26
23 -7 50 39 9 15 7 17 -12 15 -14 -1 -23 3 -23 13 0 9 -8 14 -18 12 -10 -2
-17 4 -17 14 0 10 -5 14 -15 10 -20 -7 -19 3 2 26 9 10 11 18 6 18 -6 0 -16
-6 -22 -14 -7 -8 -21 -14 -31 -13 -18 1 -18 2 -3 19 9 10 13 21 9 25 -4 4 -11
1 -15 -6 -6 -9 -18 -11 -40 -6 -26 6 -30 9 -20 21 15 18 0 18 -24 0z"/>
<path d="M3828 5773 c7 -3 16 -2 19 1 4 3 -2 6 -13 5 -11 0 -14 -3 -6 -6z"/>
<path d="M4015 5770 c-3 -5 -2 -10 4 -10 5 0 13 5 16 10 3 6 2 10 -4 10 -5 0
-13 -4 -16 -10z"/>
<path d="M4980 5772 c0 -7 7 -20 15 -28 19 -20 20 -4 0 22 -9 12 -14 14 -15 6z"/>
<path d="M5620 5749 c-19 -17 -45 -35 -56 -42 -137 -76 -204 -125 -204 -148 0
-4 11 -10 25 -13 14 -4 62 -24 106 -46 45 -22 85 -37 90 -34 5 3 20 -6 34 -20
34 -34 45 -33 45 5 0 27 -2 30 -15 19 -9 -7 -19 -10 -23 -6 -4 4 4 16 18 26
14 10 21 22 17 26 -4 4 -14 -2 -23 -14 -8 -12 -23 -22 -32 -22 -12 1 -5 10 21
31 36 30 47 49 27 49 -5 0 -25 -14 -45 -31 -20 -18 -38 -29 -41 -27 -6 7 12
24 60 58 21 15 36 34 36 46 0 19 -3 18 -36 -12 -19 -19 -40 -34 -45 -34 -6 0
-8 -4 -5 -8 3 -5 -18 -9 -45 -10 -45 -1 -49 1 -37 15 12 15 11 15 -10 4 -13
-7 -25 -11 -27 -9 -9 8 15 27 90 71 99 58 118 73 114 86 -2 6 -59 -25 -126
-69 -123 -81 -191 -109 -123 -50 19 16 39 29 44 30 5 0 17 6 25 14 9 8 43 29
76 48 85 46 107 64 103 81 -2 12 -11 8 -38 -14z"/>
<path d="M3723 5750 c-1 -13 4 -16 18 -13 24 7 24 10 1 22 -14 7 -18 6 -19 -9z"/>
<path d="M3770 5763 c0 -15 19 -37 26 -31 3 4 -1 14 -10 23 -9 9 -16 13 -16 8z"/>
<path d="M4105 5760 c-17 -7 -14 -9 13 -9 20 -1 31 3 27 9 -7 12 -13 12 -40 0z"/>
<path d="M5075 5759 c-11 -17 -2 -18 25 -4 24 14 24 14 3 15 -12 0 -25 -5 -28
-11z"/>
<path d="M3899 5755 c-1 -5 -1 -13 0 -17 0 -4 -6 -5 -13 -2 -8 3 -25 0 -38 -7
l-23 -13 30 -7 c62 -14 96 -10 127 16 34 29 26 31 -17 6 -30 -18 -30 -18 -47
8 -10 14 -18 22 -19 16z"/>
<path d="M4210 5738 c-41 -24 -150 -38 -150 -19 0 7 -5 9 -12 4 -7 -4 -20 -8
-28 -9 -44 -3 -51 -5 -47 -11 3 -5 27 -8 55 -8 35 0 48 -4 45 -12 -3 -7 2 -13
11 -13 9 0 16 4 16 9 0 5 19 12 43 16 23 4 53 13 67 20 14 7 31 10 38 8 7 -3
12 4 12 16 0 25 -5 25 -50 -1z"/>
<path d="M4835 5750 c3 -5 11 -10 16 -10 6 0 7 5 4 10 -3 6 -11 10 -16 10 -6
0 -7 -4 -4 -10z"/>
<path d="M5130 5747 c0 -9 -8 -17 -17 -17 -15 0 -15 -2 -4 -9 20 -13 48 16 32
32 -8 8 -11 7 -11 -6z"/>
<path d="M5175 5750 c-3 -5 -2 -10 4 -10 5 0 13 5 16 10 3 6 2 10 -4 10 -5 0
-13 -4 -16 -10z"/>
<path d="M4890 5744 c0 -3 5 -15 11 -26 9 -16 8 -23 -2 -29 -10 -6 -10 -9 -2
-9 18 0 24 16 17 45 -5 21 -24 37 -24 19z"/>
<path d="M4957 5743 c-4 -3 -7 -13 -7 -22 1 -13 3 -13 11 2 11 19 8 33 -4 20z"/>
<path d="M5405 5726 c-12 -12 -28 -30 -35 -41 -15 -20 -15 -20 15 0 17 10 41
25 55 32 14 7 21 13 15 13 -5 0 -4 4 4 9 9 6 7 8 -10 8 -13 0 -33 -9 -44 -21z"/>
<path d="M3326 5723 c-12 -13 -5 -22 12 -16 15 6 16 5 2 -12 -14 -17 -13 -18
3 -12 10 4 23 7 28 7 5 0 9 4 9 8 0 12 -46 32 -54 25z"/>
<path d="M3563 5716 c0 -8 6 -12 14 -9 7 3 13 9 13 14 0 5 -6 9 -13 9 -8 0
-14 -6 -14 -14z"/>
<path d="M3653 5716 c-4 -7 -17 -16 -28 -18 -16 -3 -17 -5 -5 -10 18 -7 65 27
51 36 -5 4 -13 0 -18 -8z"/>
<path d="M5035 5720 c-3 -5 1 -10 9 -10 9 0 16 5 16 10 0 6 -4 10 -9 10 -6 0
-13 -4 -16 -10z"/>
<path d="M3736 5699 c-23 -28 -15 -34 14 -11 13 10 19 22 13 25 -5 3 -17 -3
-27 -14z"/>
<path d="M4981 5709 c0 -9 6 -22 14 -29 10 -9 15 -9 15 -1 0 6 -4 11 -9 11 -5
0 -12 8 -14 18 -4 14 -5 14 -6 1z"/>
<path d="M4240 5680 c0 -11 4 -20 8 -20 4 0 8 9 9 20 1 11 -2 20 -8 20 -5 0
-9 -9 -9 -20z"/>
<path d="M3386 5676 c-23 -11 -25 -14 -11 -19 26 -11 32 -8 38 13 3 11 4 20 4
19 -1 0 -15 -6 -31 -13z"/>
<path d="M3599 5671 c13 -12 28 -21 35 -21 12 0 -5 14 -39 31 -16 8 -15 6 4
-10z"/>
<path d="M3300 5669 c0 -14 30 -38 49 -39 8 0 4 9 -10 25 -26 27 -39 31 -39
14z"/>
<path d="M3681 5656 c-13 -7 -19 -16 -14 -19 11 -7 51 18 43 26 -3 3 -16 0
-29 -7z"/>
<path d="M3771 5661 c-8 -5 -9 -11 -3 -15 5 -3 15 1 22 9 14 16 3 20 -19 6z"/>
<path d="M3830 5655 c-8 -9 -8 -15 -2 -15 12 0 26 19 19 26 -2 2 -10 -2 -17
-11z"/>
<path d="M3937 5659 c-10 -6 -25 -8 -32 -5 -8 3 -17 1 -20 -4 -3 -5 4 -12 16
-15 15 -5 28 -1 42 14 24 23 22 26 -6 10z"/>
<path d="M4100 5660 c0 -5 7 -10 15 -10 8 0 15 5 15 10 0 6 -7 10 -15 10 -8 0
-15 -4 -15 -10z"/>
<path d="M4970 5660 c0 -5 5 -10 11 -10 5 0 7 5 4 10 -3 6 -8 10 -11 10 -2 0
-4 -4 -4 -10z"/>
<path d="M5606 5634 c-28 -19 -57 -39 -65 -44 -9 -5 -13 -12 -9 -15 9 -10 128
67 128 83 0 15 4 17 -54 -24z"/>
<path d="M3418 5629 c-14 -14 -30 -23 -36 -21 -7 2 -12 -6 -12 -18 0 -18 -3
-20 -14 -11 -10 8 -19 6 -39 -9 -14 -11 -30 -20 -35 -20 -5 0 -12 -6 -15 -14
-4 -10 2 -12 26 -7 17 4 33 13 35 20 3 9 0 11 -8 6 -8 -5 -11 -4 -7 2 3 5 20
8 37 5 18 -2 30 0 30 7 0 6 6 11 14 11 8 0 18 9 21 20 5 16 12 19 33 14 15 -3
22 -2 16 3 -6 4 -13 15 -16 23 -3 11 -10 9 -30 -11z"/>
<path d="M3943 5610 c-53 -41 -79 -51 -70 -26 4 10 0 12 -13 9 -18 -5 -19 -6
-2 -29 21 -29 38 -30 52 -3 7 11 18 18 25 15 9 -3 12 0 9 9 -3 7 3 16 15 20
12 3 21 11 21 16 0 5 9 9 20 9 11 0 20 5 20 10 0 19 -25 9 -77 -30z"/>
<path d="M4137 5643 c-9 -9 -9 -23 1 -22 22 4 42 -2 37 -11 -3 -5 -1 -10 5
-10 7 0 10 -7 6 -15 -3 -10 1 -15 12 -15 21 0 46 -50 32 -64 -6 -6 -14 -5 -23
3 -8 6 -22 9 -31 5 -22 -9 -9 -26 15 -19 23 8 24 -2 2 -27 -15 -17 -15 -18 10
-18 19 0 25 4 21 15 -4 10 0 15 15 15 19 0 21 5 20 81 -1 56 -4 79 -12 76 -7
-3 -11 -10 -9 -16 1 -6 -2 -11 -8 -11 -5 0 -10 3 -10 8 0 8 -48 32 -65 32 -7
0 -15 -3 -18 -7z m103 -53 c0 -5 -5 -10 -11 -10 -5 0 -7 5 -4 10 3 6 8 10 11
10 2 0 4 -4 4 -10z"/>
<path d="M5357 5639 c-9 -6 -17 -16 -17 -23 0 -15 -21 -26 -51 -26 -15 0 -29
-18 -54 -72 -18 -40 -31 -75 -29 -77 5 -5 2 -9 39 64 31 62 30 61 90 52 5 -1
14 15 19 36 6 25 14 36 23 33 7 -3 13 -1 13 4 0 15 -14 19 -33 9z"/>
<path d="M3621 5619 c-11 -12 -24 -18 -30 -15 -7 4 -8 1 -5 -8 4 -10 1 -16 -7
-16 -8 0 -24 -15 -37 -34 -35 -52 -156 -156 -181 -156 -6 0 -20 -9 -30 -19
-17 -17 -17 -20 -4 -25 26 -10 43 -7 43 9 0 8 7 15 16 15 29 0 214 181 214
209 0 5 14 18 31 29 18 11 27 22 21 26 -6 4 -20 -3 -31 -15z"/>
<path d="M3727 5626 c-9 -9 -20 -16 -26 -16 -6 0 -11 -4 -11 -10 0 -5 7 -10
15 -10 8 0 15 5 15 11 0 6 10 9 23 7 13 -2 21 -9 19 -18 -3 -12 -1 -12 8 -3
10 9 8 16 -8 33 -18 19 -21 20 -35 6z"/>
<path d="M3843 5626 c-22 -10 -31 -26 -15 -26 12 0 48 28 42 32 -3 2 -15 -1
-27 -6z"/>
<path d="M4795 5631 c-3 -5 -1 -12 4 -15 5 -3 11 1 15 9 6 16 -9 21 -19 6z"/>
<path d="M3283 5605 c-8 -19 -8 -25 1 -25 14 0 37 35 29 44 -11 11 -18 6 -30
-19z"/>
<path d="M5285 5619 c-4 -6 -5 -13 -2 -16 7 -7 27 6 27 18 0 12 -17 12 -25 -2z"/>
<path d="M3494 5601 c6 -8 2 -11 -10 -9 -11 2 -18 -2 -16 -10 3 -14 -41 -62
-58 -62 -5 0 -10 -6 -10 -14 0 -8 -9 -17 -19 -21 -11 -3 -22 -12 -25 -20 -3
-8 -12 -15 -21 -15 -8 0 -15 -3 -15 -7 0 -5 -18 -17 -40 -27 -49 -24 -51 -36
-5 -34 26 1 34 5 31 15 -4 9 3 13 19 13 14 0 25 4 25 9 0 5 8 12 18 15 11 4
47 33 80 66 60 57 75 91 50 106 -7 5 -8 3 -4 -5z"/>
<path d="M4005 5589 c-22 -10 -36 -19 -32 -19 5 0 -5 -12 -22 -26 -17 -14 -35
-23 -41 -19 -14 9 -13 -8 2 -23 9 -9 16 -6 32 12 12 14 44 36 71 51 28 15 54
31 60 36 16 16 -28 8 -70 -12z"/>
<path d="M3430 5570 c0 -5 -6 -10 -13 -10 -8 0 -24 -9 -37 -20 -12 -11 -27
-17 -31 -14 -5 3 -9 -2 -9 -10 0 -9 9 -16 20 -16 11 0 20 7 20 15 0 8 6 15 13
15 13 1 57 34 57 44 0 3 -4 6 -10 6 -5 0 -10 -4 -10 -10z"/>
<path d="M3730 5571 c0 -5 6 -12 13 -14 9 -4 8 -8 -3 -16 -8 -6 -10 -11 -4
-11 21 0 33 22 19 36 -16 16 -25 18 -25 5z"/>
<path d="M3780 5569 c0 -5 5 -7 10 -4 6 3 10 8 10 11 0 2 -4 4 -10 4 -5 0 -10
-5 -10 -11z"/>
<path d="M4101 5559 c15 -15 24 -18 32 -10 13 13 10 16 -26 25 l-28 7 22 -22z"/>
<path d="M5183 5573 c-25 -3 -33 -9 -33 -24 0 -16 5 -19 20 -14 13 4 20 2 19
-7 -1 -16 -17 -56 -18 -44 -1 12 -31 -14 -31 -26 0 -6 7 -5 15 2 12 10 15 9
15 -4 0 -10 5 -14 10 -11 6 3 10 14 10 23 0 9 6 28 13 42 17 32 27 71 19 68
-4 0 -22 -3 -39 -5z"/>
<path d="M3628 5550 c-7 -11 -19 -20 -26 -20 -7 0 -10 -5 -6 -12 5 -8 13 -4
25 11 10 12 23 20 28 17 5 -3 11 1 15 9 8 23 -22 18 -36 -5z"/>
<path d="M5035 5560 c-3 -5 -17 -10 -29 -10 -13 0 -29 -7 -36 -15 -11 -13 -10
-15 1 -11 8 2 35 10 62 16 26 7 47 17 47 21 0 12 -37 11 -45 -1z"/>
<path d="M5100 5560 c0 -5 9 -10 20 -10 11 0 20 5 20 10 0 6 -9 10 -20 10 -11
0 -20 -4 -20 -10z"/>
<path d="M3705 5550 c3 -5 8 -10 11 -10 2 0 4 5 4 10 0 6 -5 10 -11 10 -5 0
-7 -4 -4 -10z"/>
<path d="M3804 5548 c-4 -6 -3 -8 3 -5 6 4 16 1 22 -7 9 -10 8 -15 -4 -20 -8
-3 -15 -1 -15 4 0 6 -5 10 -11 10 -8 0 -8 -4 0 -14 10 -11 8 -16 -6 -24 -10
-6 -14 -14 -10 -18 4 -4 17 2 28 15 14 15 27 20 41 15 21 -6 21 -6 -1 25 -24
33 -36 38 -47 19z"/>
<path d="M4140 5535 c0 -8 4 -15 9 -15 5 0 14 7 21 15 10 13 9 15 -9 15 -12 0
-21 -6 -21 -15z"/>
<path d="M4041 5524 c-24 -12 -23 -12 20 -34 25 -12 36 -14 25 -5 -11 8 -23
15 -28 15 -19 0 -6 19 15 22 16 2 18 5 7 9 -8 3 -26 0 -39 -7z"/>
<path d="M3645 5510 c-10 -11 -13 -20 -7 -20 7 0 12 5 12 12 0 6 8 4 19 -6 11
-10 22 -13 25 -8 3 6 -2 13 -11 16 -15 6 -15 8 -3 16 13 8 13 10 -1 10 -9 0
-24 -9 -34 -20z"/>
<path d="M4876 5509 c-68 -22 -71 -24 -61 -39 6 -9 9 -9 15 0 8 13 42 22 96
24 24 1 30 5 26 19 -5 20 -1 20 -76 -4z"/>
<path d="M5310 5510 c0 -11 -5 -20 -11 -20 -5 0 -7 -5 -4 -10 9 -14 31 4 38
30 3 13 0 20 -9 20 -8 0 -14 -9 -14 -20z"/>
<path d="M4109 5503 c-13 -16 -12 -17 4 -4 9 7 17 15 17 17 0 8 -8 3 -21 -13z"/>
<path d="M4994 5485 c-26 -35 -30 -51 -8 -37 12 8 47 72 40 72 -3 0 -17 -16
-32 -35z"/>
<path d="M5350 5506 c0 -9 8 -16 19 -16 10 0 30 -6 44 -13 21 -11 24 -16 14
-27 -10 -10 -9 -12 5 -7 10 3 20 2 24 -4 4 -6 11 -6 20 2 10 8 14 8 14 0 0 -6
5 -11 10 -11 26 0 4 18 -61 50 -92 45 -89 44 -89 26z"/>
<path d="M5075 5500 c-3 -5 -1 -10 4 -10 6 0 11 5 11 10 0 6 -2 10 -4 10 -3 0
-8 -4 -11 -10z"/>
<path d="M3294 5484 c-32 -13 -61 -41 -52 -50 7 -6 98 38 98 47 0 15 -15 16
-46 3z"/>
<path d="M3580 5490 c-10 -6 -9 -9 1 -13 10 -3 8 -7 -6 -13 -11 -4 -28 -18
-38 -31 -10 -13 -25 -23 -34 -23 -24 0 -9 -25 17 -28 21 -3 22 -2 11 12 -8 10
-9 16 -3 16 6 0 17 -9 25 -20 12 -17 16 -18 26 -6 9 11 9 14 -1 12 -15 -1 -18
5 -18 34 0 11 5 20 10 20 6 0 10 -8 10 -17 0 -15 4 -14 19 6 l18 24 22 -22
c11 -11 21 -24 20 -28 0 -5 8 -10 18 -11 12 -3 6 8 -19 33 -21 21 -38 41 -38
45 0 12 -26 19 -40 10z"/>
<path d="M3720 5475 c-7 -9 -11 -18 -8 -20 3 -3 11 1 18 10 7 9 11 18 8 20 -3
3 -11 -1 -18 -10z"/>
<path d="M3865 5480 c-3 -5 -1 -10 4 -10 6 0 11 -4 11 -10 0 -5 -9 -10 -21
-10 -11 0 -17 -4 -14 -10 8 -13 16 -12 39 5 17 13 17 15 3 30 -10 9 -18 11
-22 5z"/>
<path d="M5106 5473 c-4 -9 -1 -21 5 -27 9 -8 10 -8 5 2 -4 7 -2 19 4 27 7 9
8 15 2 15 -5 0 -13 -8 -16 -17z"/>
<path d="M3966 5448 c16 -18 33 -34 37 -37 5 -2 20 -16 35 -32 14 -16 31 -29
38 -29 7 0 14 -4 16 -8 2 -4 22 -23 45 -41 l42 -33 40 28 41 29 0 73 c0 39 -4
72 -9 72 -5 0 -8 -11 -8 -25 0 -33 -84 -118 -107 -109 -21 8 -20 33 2 41 9 4
27 13 39 21 19 12 20 16 8 28 -16 16 -35 18 -35 4 0 -5 7 -10 16 -10 14 0 14
-3 4 -15 -7 -9 -19 -14 -26 -11 -7 3 -18 -2 -25 -10 -6 -8 -16 -13 -21 -12
-14 5 -10 23 5 23 6 1 11 6 10 13 -2 7 2 12 7 12 6 0 10 5 10 11 0 6 -12 2
-27 -8 -34 -23 -81 -20 -62 3 17 20 5 28 -14 10 -13 -14 -16 -14 -21 1 -4 9
-1 20 6 25 8 6 1 7 -19 3 -21 -4 -33 -3 -33 4 0 6 -5 11 -12 11 -6 0 1 -15 18
-32z m253 -107 c-28 -23 -40 -26 -33 -8 4 12 45 36 53 30 2 -1 -7 -11 -20 -22z"/>
<path d="M4120 5470 c-12 -8 -10 -10 8 -10 13 0 20 4 17 10 -7 12 -6 12 -25 0z"/>
<path d="M4760 5465 c-8 -9 -8 -15 -2 -15 12 0 26 19 19 26 -2 2 -10 -2 -17
-11z"/>
<path d="M4937 5473 c-4 -3 -7 -13 -7 -22 1 -13 3 -13 11 2 11 19 8 33 -4 20z"/>
<path d="M5020 5454 c0 -14 3 -14 15 -4 8 7 15 14 15 16 0 2 -7 4 -15 4 -8 0
-15 -7 -15 -16z"/>
<path d="M5266 5456 c21 -15 30 -14 19 3 -3 6 -14 11 -23 11 -13 0 -13 -2 4
-14z"/>
<path d="M5356 5460 c-16 -5 -17 -8 -4 -12 16 -7 45 7 32 14 -5 3 -18 2 -28
-2z"/>
<path d="M3745 5450 c-4 -6 -2 -10 4 -10 5 0 14 -12 19 -27 8 -23 11 -25 17
-11 7 18 -30 64 -40 48z"/>
<path d="M4790 5450 c0 -5 5 -10 11 -10 5 0 7 5 4 10 -3 6 -8 10 -11 10 -2 0
-4 -4 -4 -10z"/>
<path d="M4840 5449 c0 -5 5 -7 10 -4 6 3 10 8 10 11 0 2 -4 4 -10 4 -5 0 -10
-5 -10 -11z"/>
<path d="M3805 5409 c-10 -15 3 -25 16 -12 7 7 7 13 1 17 -6 3 -14 1 -17 -5z"/>
<path d="M3700 5390 c-10 -7 -11 -10 -2 -10 6 0 12 -7 12 -15 0 -8 -7 -15 -15
-15 -23 0 -18 -14 10 -26 19 -9 27 -9 35 1 9 11 7 12 -9 8 -27 -7 -27 11 0 23
20 9 20 10 2 26 -13 12 -23 14 -33 8z"/>
<path d="M3590 5371 c0 -5 9 -11 19 -14 14 -3 18 -1 14 9 -6 15 -33 19 -33 5z"/>
<path d="M3637 5345 c-14 -20 -15 -24 -2 -19 8 3 15 10 15 15 0 5 5 8 11 7 6
-2 14 3 16 10 8 22 -21 12 -40 -13z"/>
<path d="M3937 5353 c-3 -5 3 -16 13 -26 17 -17 18 -17 23 2 3 15 1 18 -11 14
-10 -4 -13 -2 -8 5 4 7 3 12 -3 12 -5 0 -12 -3 -14 -7z"/>
<path d="M3403 5343 c-28 -5 -31 -23 -4 -23 10 0 21 7 25 15 3 8 4 14 3 14 -1
-1 -12 -4 -24 -6z"/>
<path d="M3575 5340 c3 -5 8 -10 11 -10 2 0 4 5 4 10 0 6 -5 10 -11 10 -5 0
-7 -4 -4 -10z"/>
<path d="M3760 5344 c0 -3 6 -11 13 -18 11 -11 17 -11 30 -1 9 7 17 16 17 20
0 4 -7 2 -15 -5 -10 -9 -15 -9 -15 -1 0 6 -7 11 -15 11 -8 0 -15 -3 -15 -6z"/>
<path d="M3825 5320 c-3 -5 -1 -10 4 -10 6 0 11 5 11 10 0 6 -2 10 -4 10 -3 0
-8 -4 -11 -10z"/>
<path d="M3241 5265 c-5 -5 -11 -30 -15 -55 -4 -35 -3 -41 5 -27 6 10 23 23
37 29 26 10 26 10 6 18 -12 5 -25 13 -29 19 -8 13 0 14 23 2 9 -4 29 -11 45
-15 20 -5 27 -3 27 9 0 9 -9 15 -25 15 -14 0 -25 4 -25 9 0 13 -39 10 -49 -4z"/>
<path d="M3913 5242 c-13 -2 -23 -7 -23 -12 0 -14 29 -20 54 -10 15 5 27 5 34
-2 8 -8 16 -6 28 6 20 20 12 32 -12 18 -10 -6 -27 -7 -38 -3 -12 4 -31 5 -43
3z"/>
<path d="M3698 5222 c-16 -9 -28 -20 -28 -24 0 -5 -6 -8 -14 -8 -7 0 -19 -7
-26 -15 -18 -22 15 -20 38 3 10 9 32 27 47 40 34 26 22 29 -17 4z"/>
<path d="M3288 5190 c-38 -21 -68 -55 -68 -78 0 -8 21 4 46 27 26 23 52 41 59
41 7 0 18 7 25 15 18 22 -15 19 -62 -5z"/>
<path d="M3530 5180 c-8 -5 -11 -12 -7 -16 4 -4 15 0 24 9 18 18 8 23 -17 7z"/>
<path d="M3580 5136 c-8 -11 -18 -12 -35 -6 -20 8 -23 6 -21 -16 1 -24 20 -33
31 -14 4 6 11 8 16 4 11 -6 49 23 49 38 0 13 -27 9 -40 -6z m20 -11 c-7 -8
-18 -15 -24 -15 -6 0 -2 7 8 15 25 19 32 19 16 0z"/>
<path d="M3795 5119 c-10 -15 3 -25 16 -12 7 7 7 13 1 17 -6 3 -14 1 -17 -5z"/>
<path d="M4945 2539 c-4 -6 -5 -12 -2 -15 2 -3 7 2 10 11 7 17 1 20 -8 4z"/>
<path d="M3385 7600 c-3 -5 -1 -10 4 -10 6 0 11 5 11 10 0 6 -2 10 -4 10 -3 0
-8 -4 -11 -10z"/>
<path d="M2953 6918 c-24 -12 -38 -41 -28 -58 4 -6 11 -7 17 -4 6 4 14 1 18
-7 7 -10 17 -6 44 15 41 31 44 41 17 56 -24 12 -39 12 -68 -2z"/>
<path d="M2632 6490 c7 -10 14 -18 15 -16 6 6 -9 36 -18 36 -5 0 -4 -9 3 -20z"/>
<path d="M4793 3123 c9 -2 23 -2 30 0 6 3 -1 5 -18 5 -16 0 -22 -2 -12 -5z"/>
<path d="M3564 2993 c-8 -39 -54 -174 -66 -196 -14 -28 -4 -30 33 -8 19 10 63
29 99 42 36 12 67 24 69 26 3 2 -26 35 -64 73 -38 39 -65 70 -59 70 5 0 17 -8
25 -17 24 -27 70 -65 74 -61 6 5 -85 98 -96 98 -5 0 -11 -12 -15 -27z"/>
<path d="M3680 2905 c0 -2 10 -10 23 -16 20 -11 21 -11 8 4 -13 16 -31 23 -31
12z"/>
<path d="M3379 2643 c-13 -16 -12 -17 4 -4 16 13 21 21 13 21 -2 0 -10 -8 -17
-17z"/>
</g>
</svg>
